<?xml version="1.0" encoding="utf-8"?>
<!-- Generator: Adobe Illustrator 27.0.0, SVG Export Plug-In . SVG Version: 6.00 Build 0)  -->
<svg version="1.1" id="Слой_1" xmlns="http://www.w3.org/2000/svg" xmlns:xlink="http://www.w3.org/1999/xlink" x="0px" y="0px" viewBox="0 0 512 512"
	 style="enable-background:new 0 0 512 512;" xml:space="preserve">
<style type="text/css">
	.st0{fill:#CD4C60;}
	.st1{fill:#C1D0D8;}
	.st2{fill:#E8EEF2;}
	.st3{fill:#D35A4D;}
	.st4{fill:#E26453;}
	.st5{fill:#F3745E;}
	.st6{fill:#262626;}
</style>
<g>
	<path class="st0" d="M285.6,482.1c-2.4,0-4.3-1.9-4.3-4.3c0-1.5,0.8-2.9,2.1-3.7L501,348.5c2-1.2,4.6-0.6,5.9,1.4
		c1.2,2,0.6,4.6-1.4,5.9L461,384.4l40-23.1c2-1.2,4.6-0.6,5.9,1.4c1.2,2,0.6,4.6-1.4,5.9l0,0L470.9,391l30.2-17.4
		c2-1.2,4.7-0.4,5.8,1.6c1.1,1.9,0.5,4.3-1.2,5.6l-64,44.9l59.4-34.3c2-1.3,4.6-0.6,5.9,1.3c1.3,2,0.6,4.6-1.3,5.9l-26.4,18
		l21.8-12.6c2-1.2,4.7-0.5,5.8,1.6c1.1,1.9,0.5,4.4-1.3,5.6l-13.7,9.4l9.1-5.3c2-1.1,4.5-0.6,5.7,1.3s0.8,4.4-1,5.8l-21.6,16.2
		l16.9-9.8c2-1.2,4.7-0.5,5.8,1.6c1,1.7,0.7,3.9-0.8,5.3l-20.6,18.9l15.5-9c2-1.2,4.7-0.5,5.8,1.6c0.8,1.4,0.7,3.2-0.2,4.5
		l-8.8,12.8l3.2-1.8c2-1.2,4.6-0.5,5.8,1.6c1.2,2,0.5,4.7-1.6,5.8l-19.6,11.3c-2,1.2-4.7,0.5-5.8-1.6c-0.8-1.4-0.7-3.2,0.2-4.5
		l8.8-12.8l-32.8,18.9c-2,1.2-4.7,0.5-5.8-1.6c-1-1.7-0.7-3.9,0.8-5.3l20.5-18.8l-44.5,25.7c-2,1.2-4.6,0.6-5.9-1.4
		c-1.2-1.9-0.7-4.4,1.2-5.7l21.6-16.2l-40.5,23.4c-2,1.2-4.7,0.5-5.8-1.6c-1.1-1.9-0.5-4.4,1.3-5.6l13.7-9.4l-28.8,16.6
		c-2,1.3-4.6,0.6-5.9-1.3c-1.3-2-0.6-4.6,1.3-5.9l26.4-18L362,481.5c-2,1.2-4.7,0.4-5.8-1.6c-1.1-1.9-0.5-4.3,1.2-5.6l63.9-44.8
		l-90.2,52.1c-2.1,1.1-4.7,0.3-5.8-1.8c-1-1.9-0.4-4.3,1.3-5.5l34.7-22.5l-51.6,29.8c-2,1.2-4.6,0.6-5.9-1.4c-1.2-2-0.6-4.6,1.4-5.9
		l0,0l44.5-28.6l-62.2,35.9C287.1,481.9,286.4,482.1,285.6,482.1L285.6,482.1z"/>
	<path class="st0" d="M258.9,507.3c-2.4,0-4.3-1.9-4.3-4.3c0-1.1,0.4-2.1,1.2-2.9l2-2.1l-10.8,6.2c-2,1.2-4.6,0.6-5.9-1.5
		s-0.6-4.6,1.5-5.9l25.9-16.1l-29.6,17.1c-2,1.2-4.6,0.6-5.9-1.5c-1.2-2-0.6-4.6,1.5-5.9l48.2-30l-48.9,28.2
		c-2.1,1.1-4.7,0.3-5.8-1.8c-1-1.9-0.4-4.3,1.4-5.5l85.5-53.9L222,481c-2,1.2-4.6,0.5-5.8-1.5s-0.5-4.6,1.5-5.8l24.8-15.3L203.4,481
		c-2,1.2-4.6,0.6-5.9-1.5c-1.2-2-0.6-4.6,1.5-5.9l66.3-41l-83.7,48.3c-2,1.2-4.7,0.5-5.8-1.6c-1.1-2-0.5-4.5,1.4-5.7L328,378
		L149.5,481.3c-2,1.2-4.6,0.6-5.9-1.4c-1.2-2-0.6-4.6,1.4-5.9l168.6-106.2L117,481.3c-2,1.2-4.7,0.5-5.8-1.6c-1.1-2-0.5-4.5,1.5-5.7
		l68.7-41.8l-85.1,49.1c-2,1.2-4.6,0.5-5.8-1.5c-1.2-2-0.5-4.6,1.5-5.8l0,0l94.4-57.4L74.1,481.3c-2,1.2-4.6,0.5-5.8-1.5
		c-1.2-2-0.5-4.6,1.5-5.8l31.8-19.2l-45.9,26.5c-2,1.2-4.6,0.5-5.8-1.5s-0.5-4.6,1.5-5.8l34.1-20.5l-48.2,27.9
		c-2,1.2-4.6,0.5-5.8-1.5s-0.5-4.6,1.5-5.8l0,0l188.4-115.4l-208.2,120c-2.1,1.1-4.7,0.3-5.8-1.8c-1-1.9-0.4-4.3,1.4-5.5L246,325.3
		L10.9,461c-2,1.2-4.6,0.5-5.8-1.5s-0.5-4.6,1.5-5.8l34.1-20.4l-29.8,17.2c-2.1,1.1-4.7,0.3-5.8-1.8c-1-1.9-0.4-4.3,1.4-5.5
		L246.9,295l-236,136.3c-2,1.2-4.6,0.5-5.8-1.5s-0.5-4.6,1.5-5.8l0,0l23-13.7L11,421.1c-2,1.2-4.6,0.5-5.8-1.5s-0.5-4.6,1.5-5.8
		l157.4-96L10.9,405.9c-2.1,1.2-4.7,0.4-5.8-1.6s-0.5-4.5,1.4-5.7L198,280.1l-187,108c-2,1.2-4.6,0.5-5.8-1.5s-0.5-4.6,1.5-5.8
		l132.6-81.4l-128.4,74c-2,1.2-4.6,0.6-5.9-1.5s-0.6-4.6,1.5-5.9l0,0l153.1-95.2l-148.7,86c-2,1.2-4.6,0.6-5.9-1.5
		c-1.2-2-0.6-4.6,1.5-5.9l151-94.9L10.9,339.2c-2,1.2-4.6,0.5-5.9-1.5c-1.2-2-0.5-4.6,1.5-5.9l0,0l71.8-44.3l-67.4,38.9
		c-2.1,1.1-4.7,0.3-5.8-1.8c-1-1.9-0.4-4.3,1.4-5.5L117.8,249L10.9,310.7c-2,1.2-4.6,0.5-5.8-1.5s-0.6-4.6,1.4-5.8l100.8-64.1
		L11,294.9c-2.1,1.1-4.7,0.3-5.8-1.8c-1-1.9-0.4-4.3,1.4-5.5l58.7-37L10.9,282c-2,1.2-4.6,0.6-5.9-1.5c-1.2-2-0.6-4.6,1.5-5.9
		l30.2-19l-25.8,14.9c-2,1.2-4.6,0.5-5.8-1.5s-0.5-4.5,1.4-5.8l48.3-31l-43.9,25.3c-2,1.2-4.6,0.6-5.9-1.4c-1.2-2-0.6-4.6,1.4-5.9
		l0,0l60.5-40l-56,32.3c-2,1.2-4.6,0.5-5.8-1.6c-1.1-1.9-0.6-4.4,1.3-5.7l48.4-32.5L10.9,228c-2.1,1.1-4.7,0.4-5.8-1.7
		c-1-1.9-0.5-4.3,1.3-5.5L30,205.2l-19.1,11c-2,1.2-4.7,0.5-5.8-1.6c-1.1-1.9-0.6-4.3,1.2-5.6l40.5-29.7L11,200c-2,1.4-4.7,0.9-6-1
		s-0.8-4.6,1.1-5.9l0,0l28.3-22.2l-23.6,13.6c-2.1,1.1-4.7,0.4-5.8-1.7c-0.9-1.7-0.6-3.8,0.8-5.2l18.8-16.9l-13.8,8
		c-2,1.2-4.7,0.5-5.8-1.6c-1-1.7-0.7-3.8,0.7-5.1l4.8-4.7c-2.1,1-4.7,0-5.7-2.1c-0.6-1.3-0.5-2.8,0.3-4l2.9-4.6
		c-2.3-0.7-3.6-3-2.9-5.3c0.3-1.1,1-2,2-2.5l9.9-5.7c2-1.2,4.7-0.5,5.8,1.6c0.8,1.4,0.8,3-0.1,4.4l-1.3,2.2l14-8.1
		c2-1.2,4.6-0.5,5.8,1.5c1,1.7,0.7,3.9-0.7,5.2l-4.7,4.6l19.7-11.4c2.1-1.1,4.7-0.4,5.8,1.7c0.9,1.7,0.6,3.8-0.8,5.2l-18.8,16.9
		l41.2-23.8c2-1.2,4.6-0.6,5.8,1.4c1.1,1.9,0.7,4.3-1.1,5.6l-28.3,22.2l50.6-29.2c2-1.2,4.7-0.5,5.8,1.6c1.1,1.9,0.6,4.3-1.2,5.6
		L74,170l63.8-36.9c2.1-1.1,4.7-0.4,5.8,1.7c1,1.9,0.5,4.3-1.3,5.5l-23.6,15.8l39.9-23c2-1.2,4.6-0.5,5.8,1.6
		c1.1,1.9,0.6,4.4-1.3,5.7l-48.4,32.5l68.9-39.8c2-1.2,4.6-0.6,5.9,1.4c1.2,2,0.6,4.6-1.4,5.9l0,0l-60.5,40l81.9-47.3
		c2-1.2,4.6-0.5,5.8,1.5s0.5,4.5-1.4,5.8l-48.3,31l66.3-38.2c2-1.2,4.6-0.6,5.9,1.5c1.2,2,0.6,4.6-1.5,5.9l-30.3,19l45.6-26.3
		c2-1.2,4.6-0.6,5.9,1.4s0.6,4.6-1.4,5.9l0,0l-58.7,37l76.7-44.3c2-1.2,4.6-0.6,5.9,1.4c1.2,2,0.6,4.6-1.4,5.9l-100.7,64.1
		l123.6-71.4c2-1.2,4.6-0.6,5.9,1.4s0.6,4.6-1.4,5.9l-111.3,70.2L329,133.2c2.1-1.1,4.7-0.3,5.8,1.8c1,1.9,0.4,4.3-1.4,5.5
		l-71.7,44.2l89.3-51.6c2-1.2,4.6-0.6,5.9,1.5c1.2,2,0.6,4.6-1.5,5.9l-151,94.9l177-102.2c2-1.2,4.6-0.6,5.9,1.5
		c1.2,2,0.6,4.6-1.5,5.9l-153.1,95.2l177.5-102.5c2-1.2,4.6-0.5,5.8,1.5c1.2,2,0.5,4.6-1.5,5.8L281.9,222l153.7-88.7
		c2.1-1.2,4.7-0.4,5.8,1.6c1.1,2,0.5,4.5-1.4,5.7L248.5,258.9l217.9-125.8c2-1.2,4.6-0.5,5.8,1.5c1.2,2,0.5,4.6-1.5,5.8l-157.4,96
		l179-103.3c2-1.2,4.6-0.5,5.8,1.5s0.5,4.6-1.5,5.8l-22.8,13.7l26.7-15.4c2.1-1.1,4.7-0.3,5.8,1.8c1,1.9,0.4,4.3-1.4,5.5
		L264.5,294.2l236.6-136.6c2-1.2,4.6-0.5,5.8,1.5s0.5,4.6-1.5,5.8l-33.8,20.2l29.4-17c2.1-1.1,4.7-0.3,5.8,1.8
		c1,1.9,0.4,4.3-1.4,5.5L268.2,321.7l232.9-134.5c2-1.2,4.6-0.5,5.8,1.5c1.2,2,0.5,4.6-1.4,5.8L317,310l184.1-106.3
		c2-1.2,4.6-0.5,5.8,1.5s0.5,4.6-1.5,5.8l-34,20.4l29.7-17.1c2-1.2,4.6-0.5,5.8,1.5c1.2,2,0.5,4.6-1.5,5.8l-32,19.2l27.6-15.9
		c2-1.2,4.7-0.5,5.8,1.6c1.1,2,0.5,4.5-1.5,5.7l-94.4,57.5l90.1-52c2-1.2,4.7-0.5,5.8,1.6c1.1,2,0.5,4.5-1.5,5.7l-68.6,41.7
		l64.3-37.1c2-1.2,4.6-0.6,5.9,1.4c1.2,2,0.6,4.6-1.4,5.9l0,0L336.9,363.4l164.2-94.8c2-1.2,4.7-0.5,5.8,1.6c1.1,2,0.5,4.5-1.4,5.7
		l-150.8,95.6L501.1,287c2-1.2,4.6-0.6,5.9,1.5c1.2,2,0.6,4.6-1.5,5.9l-66.2,41l61.8-35.7c2-1.2,4.6-0.5,5.8,1.5
		c1.2,2,0.5,4.6-1.5,5.8l-24.9,15.3l20.5-11.8c2.1-1.1,4.7-0.3,5.8,1.8c1,1.9,0.4,4.3-1.4,5.5l-85.5,53.9l81-46.8
		c2-1.2,4.6-0.6,5.9,1.5c1.2,2,0.6,4.6-1.5,5.9l-48.2,30l43.8-25.3c2-1.2,4.6-0.6,5.9,1.5c1.2,2,0.6,4.6-1.5,5.9l-220,136.4
		c-0.2,0.8-0.5,1.5-1.1,2l-6.2,6.6c2.2,0.9,3.1,3.4,2.2,5.6c-0.4,0.9-1,1.6-1.8,2l-17.5,10.1c-0.6,0.4-1.4,0.6-2.1,0.6L258.9,507.3z
		"/>
	<path class="st1" d="M63.5,447.9c-2.4,0-4.3-1.9-4.3-4.3c0-1.1,0.5-2.2,1.3-3l6.3-6.2l-7.4,4.3c-2,1.2-4.6,0.5-5.8-1.5l0,0
		c-1.2-2-0.5-4.6,1.5-5.8l0,0l36.6-21.1c2-1.2,4.7-0.5,5.8,1.6c1,1.7,0.7,3.8-0.7,5.1l-6.3,6.2l41.7-24.1c2-1.2,4.7-0.5,5.8,1.6
		c1,1.8,0.6,4-0.9,5.3l-13.7,12l41.6-24c2-1.2,4.6-0.6,5.9,1.4c1.1,1.8,0.7,4.2-1,5.6L153,414.9l41.3-23.9c1.9-1.1,4.4-0.6,5.6,1.3
		c1.3,1.8,0.9,4.3-0.8,5.7l-18.3,15l40.4-23.3c2-1.2,4.7-0.5,5.8,1.6c1,1.8,0.6,4-0.9,5.4l-23.8,20.5l48.5-28c2-1.2,4.7-0.5,5.8,1.6
		c1,1.7,0.7,3.9-0.8,5.3L229.4,420l52.6-30.3c2-1.3,4.6-0.7,5.9,1.2c1.3,2,0.7,4.6-1.2,5.9l-6.8,5l19.8-11.4c2-1.2,4.6-0.5,5.8,1.5
		c1.1,1.8,0.6,4.2-1,5.5l-18.1,14.5l34.9-20.1c2-1.2,4.6-0.6,5.9,1.4c1.1,1.8,0.8,4.1-0.8,5.5l-24.4,23l46.6-26.9
		c2-1.2,4.7-0.5,5.8,1.6c1.1,1.9,0.6,4.2-1.1,5.5l-6.9,5.3l17.5-10.1c2-1.2,4.7-0.5,5.8,1.6c1.1,1.9,0.6,4.2-1.1,5.5l-3.4,2.6
		l12.3-7.1c2-1.2,4.7-0.4,5.8,1.6c1,1.8,0.6,4.1-1,5.4l-9.5,7.9l19.8-11.4c2-1.2,4.7-0.5,5.8,1.6c1,1.7,0.6,4-0.9,5.3l-10,8.9
		l19.9-11.5c2-1.2,4.6-0.5,5.8,1.5c0.9,1.5,0.8,3.4-0.3,4.8l-12,15.4l25.3-14.6c1.8-1.1,4.2-0.6,5.5,1s1.2,4-0.2,5.6l-4.4,4.8
		l10.1-5.8c1.7-1,3.8-0.7,5.1,0.7c1.4,1.4,1.6,3.5,0.7,5.2l-3.6,6.3l8.5-4.9c2-1.2,4.7-0.5,5.8,1.6c0.5,0.8,0.7,1.7,0.5,2.7
		l-0.5,4.3l1.9-1.1c2-1.2,4.6-0.5,5.8,1.5l0,0c1.2,2,0.5,4.6-1.5,5.8l0,0l-9.4,5.4c-2.1,1.2-4.7,0.4-5.8-1.6
		c-0.5-0.8-0.6-1.7-0.5-2.6l0.5-4.3l-14.8,8.5c-1.7,1-3.8,0.7-5.2-0.7c-1.4-1.4-1.6-3.5-0.7-5.2l3.6-6.3l-20.9,12.1
		c-1.8,1.1-4.2,0.6-5.5-1s-1.2-4,0.2-5.6l4.4-4.8l-19.8,11c-1.8,1-4,0.7-5.4-0.9c-1.3-1.5-1.4-3.8-0.2-5.4l12-15.4l-37.6,21.7
		c-2,1.2-4.7,0.5-5.8-1.6c-1-1.7-0.6-4,0.9-5.3l10-8.9l-27.3,15.8c-2,1.2-4.7,0.4-5.8-1.6c-1-1.8-0.6-4.1,1-5.4l9.5-7.9l-25.8,14.9
		c-2,1.2-4.7,0.5-5.8-1.6c-1.1-1.9-0.6-4.2,1.1-5.5l3.4-2.6l-16.7,9.7c-2,1.2-4.7,0.5-5.8-1.6c-1.1-1.9-0.6-4.2,1.1-5.5l6.9-5.3
		l-21.4,12.4c-2,1.2-4.6,0.5-5.8-1.5c-1-1.7-0.7-4,0.8-5.3l24.4-23L242,447.2c-2.1,1.1-4.7,0.4-5.8-1.7c-1-1.8-0.6-4,1-5.4
		l18.2-14.6L218,447.1c-2,1.2-4.7,0.5-5.8-1.6c-1.1-1.9-0.6-4.3,1.2-5.5l6.8-5L199,447.2c-2,1.2-4.7,0.5-5.8-1.6
		c-1-1.7-0.7-3.9,0.8-5.3l26.4-23.9l-53.3,30.8c-2,1.2-4.7,0.5-5.8-1.6c-1-1.8-0.6-4,0.9-5.4l23.8-20.5l-47.6,27.5
		c-2,1.2-4.7,0.5-5.8-1.6c-1-1.8-0.6-4.1,1-5.4l18.3-14.9l-37.9,22c-2,1.2-4.7,0.5-5.8-1.6c-1-1.8-0.6-4.1,1-5.4l17-14.1l-36.6,21.1
		c-1.9,1.1-4.3,0.6-5.6-1.2c-1.3-1.8-1-4.3,0.7-5.7l13.7-11.9l-32.7,18.9C65,447.7,64.2,447.9,63.5,447.9L63.5,447.9z"/>
	<path class="st2" d="M459.7,447.5c-2.4,0-4.3-1.9-4.3-4.3c0-0.8,0.2-1.5,0.6-2.2l0.9-1.5l-4.3,2.5c-2,1.2-4.6,0.5-5.8-1.5
		c-0.8-1.4-0.8-3.1,0.1-4.4l9.9-16.1l-22.4,12.9c-2,1.2-4.7,0.5-5.8-1.6c-1-1.7-0.7-3.9,0.8-5.2l9.4-8.8l-17.5,10.1
		c-2.1,1.1-4.7,0.4-5.8-1.6c-1-1.8-0.6-4,1-5.3l10.1-8.4l-18.4,10.6c-2.1,1.2-4.7,0.4-5.8-1.7c-1-1.7-0.6-3.9,0.9-5.3l29.4-25.5
		l-46.1,26.6c-2,1.2-4.6,0.5-5.8-1.5c-1.1-1.9-0.6-4.2,1.1-5.5l31.1-23.6l-47.8,27.6c-2,1.2-4.7,0.5-5.8-1.6
		c-1.1-1.9-0.6-4.3,1.3-5.6l24.3-17l-41.1,23.8c-2,1.2-4.6,0.5-5.8-1.5c-1.2-2-0.6-4.5,1.3-5.8l17.7-11.8l-39.6,22.8
		c-2,1.3-4.6,0.7-5.9-1.3s-0.7-4.6,1.3-5.9l71.6-49.9l-136.6,78.9c-2,1.2-4.6,0.6-5.9-1.4c-1.2-2-0.6-4.6,1.4-5.9l0,0l107.4-71.1
		l-119,68.7c-2,1.2-4.6,0.5-5.8-1.5c-1.1-2-0.5-4.5,1.4-5.7l102.4-66.5l-114.9,66.3c-2,1.2-4.6,0.6-5.9-1.4c-1.2-2-0.6-4.6,1.4-5.9
		l0,0L327,339l-133.3,77c-2,1.2-4.7,0.5-5.8-1.6c-1.1-2-0.5-4.5,1.4-5.7l106.4-67.5l-124.9,72.1c-2,1.2-4.6,0.5-5.8-1.5
		s-0.6-4.6,1.4-5.8l137.1-87.4L134.8,416c-2,1.2-4.6,0.5-5.8-1.5s-0.5-4.6,1.5-5.8l31.1-18.9l-63.4,36.6c-2,1.2-4.6,0.5-5.8-1.5
		s-0.5-4.6,1.5-5.8l55.7-33.9l-103,59c-2,1.2-4.6,0.5-5.8-1.5s-0.5-4.6,1.5-5.8l122.2-74.5L45,431.3c-2,1.2-4.6,0.5-5.8-1.5
		s-0.5-4.6,1.5-5.8l69.1-41.8L45,419.5c-2,1.2-4.6,0.6-5.9-1.5c-1.2-2-0.6-4.6,1.5-5.9l0,0l199-123.5L45,401c-2,1.2-4.6,0.5-5.9-1.5
		c-1.2-2-0.5-4.6,1.5-5.9l177-109.2L45,384.2c-2,1.2-4.6,0.5-5.8-1.5s-0.5-4.6,1.5-5.8l60-36.2l-55.7,32c-2.1,1.2-4.7,0.4-5.8-1.6
		s-0.5-4.5,1.4-5.7L216,256.9L45,355.6c-2.1,1.1-4.7,0.3-5.8-1.8c-1-1.9-0.4-4.3,1.4-5.6l76-46.2L45,343.4c-2,1.2-4.6,0.5-5.8-1.5
		s-0.5-4.6,1.5-5.8l95.8-58.6L45,330.3c-2,1.2-4.6,0.5-5.8-1.5s-0.5-4.6,1.5-5.8l0,0l10.6-6.4l-6.3,3.6c-2,1.2-4.6,0.5-5.8-1.5
		s-0.6-4.6,1.4-5.8l170.8-108.1L45,300.8c-2,1.2-4.6,0.6-5.9-1.4c-1.2-2-0.6-4.6,1.4-5.9l151.2-96.1L45,282.1
		c-2,1.2-4.7,0.5-5.8-1.6c-1.1-2-0.5-4.5,1.4-5.7l86.4-54l-82,47.4c-2,1.2-4.6,0.6-5.9-1.5c-1.2-2-0.6-4.6,1.5-5.9l0,0L85.3,233
		L45,256.2c-2,1.2-4.6,0.6-5.9-1.5c-1.2-2-0.6-4.6,1.5-5.9l3.8-2.4c-2.2,0.8-4.7-0.3-5.5-2.5c-0.7-1.9,0-4,1.7-5.1l50.6-32.6L45,233
		c-2,1.2-4.6,0.5-5.8-1.5c-1.1-1.9-0.6-4.4,1.3-5.7l86.5-59.1L45,214c-2,1.2-4.7,0.5-5.8-1.6c-1.1-1.9-0.6-4.3,1.3-5.6l77.6-54.2
		l-73,42.1c-2.1,1.1-4.7,0.4-5.8-1.7c-1-1.9-0.5-4.2,1.2-5.5l61.4-43.6L45,176.8c-2,1.2-4.7,0.5-5.8-1.6c-1.1-1.9-0.6-4.3,1.2-5.5
		l45.9-33.9L45,159.6c-2,1.2-4.6,0.5-5.8-1.5c-1.1-1.9-0.6-4.2,1.1-5.5L66.9,132L45,144.5c-2,1.2-4.6,0.5-5.8-1.5
		c-0.8-1.4-0.8-3.2,0.2-4.6l10.3-15.1l-4.2,2.4c-2,1.2-4.7,0.5-5.8-1.6c-1.2-2-0.5-4.7,1.6-5.8l0,0l20.2-11.7c2-1.2,4.7-0.5,5.8,1.6
		c0.8,1.4,0.8,3.2-0.2,4.5l-10.3,15.2l60-34.6c2-1.2,4.6-0.5,5.8,1.5c1.1,1.9,0.6,4.2-1.1,5.5l-26.6,20.6l52.5-30.3
		c2.1-1.1,4.7-0.3,5.8,1.7c1,1.8,0.5,4.1-1.1,5.4l-45.9,33.9l70-40.4c2-1.3,4.6-0.7,5.9,1.3c1.3,2,0.7,4.6-1.3,5.9L119.4,142
		l80.2-46.3c2-1.3,4.6-0.7,5.9,1.3s0.7,4.6-1.3,5.9L126.6,157l93.5-54c2-1.2,4.6-0.5,5.8,1.5c1.1,1.9,0.6,4.4-1.3,5.7l-86.5,59.1
		l99.1-57.2c2-1.2,4.7-0.5,5.8,1.6c1.1,2,0.5,4.4-1.4,5.7L191.2,152l56.5-32.6c2.1-1.1,4.7-0.3,5.8,1.8c1,1.9,0.4,4.3-1.4,5.5
		l-2.6,1.6L304,96.8c2-1.2,4.6-0.6,5.9,1.5c1.2,2,0.6,4.6-1.5,5.9L263.8,132l71-41c2-1.2,4.7-0.5,5.8,1.6c1.1,2,0.5,4.5-1.4,5.7
		l-86.5,54.1l106.9-61.7c2-1.2,4.6-0.6,5.9,1.4c1.2,2,0.6,4.6-1.4,5.9l-151.2,96L388.1,92.9c2-1.2,4.6-0.6,5.9,1.4
		c1.2,2,0.6,4.6-1.4,5.9l0,0L221.7,208.3L414,97.3c2-1.2,4.6-0.5,5.8,1.5c1.2,2,0.5,4.6-1.5,5.8l-10.8,6.6l18.8-10.9
		c2.1-1.1,4.7-0.3,5.8,1.8c1,1.9,0.4,4.3-1.4,5.5L335.1,166l106.1-61.3c2.1-1.1,4.7-0.3,5.8,1.8c1,1.9,0.4,4.3-1.4,5.6l-75.9,46.1
		l84.2-48.6c2.1-1.2,4.7-0.4,5.8,1.6c1.1,2,0.5,4.5-1.4,5.7L282.9,225.5l183.9-106.1c2-1.2,4.6-0.5,5.8,1.5c1.2,2,0.5,4.6-1.5,5.8
		l-60,36.2l55.8-32.2c2.1-1.1,4.7-0.3,5.8,1.8c1,1.9,0.4,4.3-1.4,5.5l-177,109.2l172.6-99.7c2-1.2,4.6-0.6,5.9,1.5
		c1.2,2,0.6,4.6-1.5,5.9l-199,123.5L466.9,166c2-1.2,4.6-0.5,5.8,1.5c1.2,2,0.5,4.6-1.5,5.8l-69.1,41.8l64.7-37.4
		c2-1.2,4.6-0.5,5.8,1.5c1.2,2,0.5,4.6-1.5,5.8l0,0l-122.2,74.5l117.8-68c2-1.2,4.7-0.5,5.8,1.6c1.1,2,0.5,4.5-1.5,5.7l-55.6,33.8
		l51.2-29.6c2-1.2,4.7-0.5,5.8,1.6c1.1,2,0.5,4.5-1.5,5.7l-31.4,19.2l27.1-15.6c2-1.2,4.6-0.6,5.9,1.4c1.2,2,0.6,4.6-1.4,5.9
		l-137,87.3L466.6,232c2-1.2,4.7-0.5,5.8,1.6c1.1,2,0.5,4.5-1.4,5.7l-106.4,67.5l102-58.9c2-1.2,4.6-0.6,5.9,1.4s0.6,4.6-1.4,5.9
		l0,0l-116.6,75.5l112.2-64.8c2-1.2,4.6-0.5,5.8,1.5c1.1,2,0.5,4.5-1.4,5.7L369,340l97.9-56.5c2-1.2,4.6-0.6,5.9,1.4
		c1.2,2,0.6,4.6-1.4,5.9L364,361.9l102.9-59.4c2-1.2,4.7-0.5,5.8,1.6c1.1,1.9,0.6,4.3-1.3,5.6l-71.7,50l67.1-38.7
		c2-1.2,4.6-0.5,5.8,1.5c1.2,2,0.6,4.5-1.3,5.8l-17.6,11.8l13.1-7.6c2-1.2,4.7-0.5,5.8,1.6c1.1,1.9,0.6,4.3-1.3,5.6l-24.3,17
		l19.7-11.4c2.1-1.1,4.7-0.4,5.8,1.7c1,1.8,0.5,4.1-1.1,5.4l-31.1,23.7l26.4-15.2c2.1-1.2,4.7-0.4,5.8,1.7c1,1.7,0.6,3.9-0.9,5.3
		L442.4,393l24.5-14.2c2.1-1.1,4.7-0.4,5.8,1.6c1,1.8,0.6,4-1,5.3l-10.1,8.3l5.3-3c2-1.2,4.7-0.5,5.8,1.6c1,1.7,0.7,3.9-0.8,5.2
		l-9.4,8.8l4.4-2.5c2-1.2,4.6-0.5,5.8,1.5c0.8,1.4,0.8,3.1-0.1,4.4l-9.9,16.1l4.1-2.4c2-1.2,4.7-0.5,5.8,1.6c0.8,1.3,0.8,3,0,4.3
		l-2.5,4.2c2.2,0.8,3.4,3.2,2.6,5.4c-0.3,1-1,1.8-1.9,2.3l-9.1,5.3C461.1,447.3,460.4,447.5,459.7,447.5L459.7,447.5z"/>
	<path class="st3" d="M279.1,328.2c-2.4,0-4.3-2-4.2-4.3c0-0.8,0.2-1.5,0.6-2.1l8.3-13.9l-15.9,9.2c-2,1.2-4.7,0.5-5.8-1.6
		c-1-1.7-0.7-3.8,0.7-5.1l8.9-9l-5.6,3.2c-2,1.2-4.7,0.5-5.8-1.6c-0.9-1.6-0.7-3.7,0.6-5l12.9-13.7l-9.6,5.5c-2,1.2-4.6,0.5-5.8-1.5
		c-1-1.7-0.7-3.9,0.7-5.2l4.2-4.1l-1.8,1c-2,1.2-4.7,0.5-5.8-1.6c-1-1.7-0.7-3.8,0.7-5.1l2.1-2.2l-1.6,0.9c-1.7,1-3.9,0.7-5.2-0.8
		c-1.4-1.4-1.5-3.6-0.4-5.3l8.9-13.4l-14,8.1c-2,1.2-4.6,0.5-5.8-1.5l0,0c-1.2-2-0.5-4.6,1.5-5.8l0,0l29.8-17.2
		c1.7-1,3.9-0.7,5.2,0.8c1.4,1.4,1.5,3.6,0.4,5.3l-8.9,13.4l13.4-7.8c2.1-1.2,4.7-0.4,5.8,1.6c0.9,1.6,0.7,3.7-0.6,5l-2.1,2.2
		l3.1-1.8c2-1.2,4.6-0.6,5.8,1.4c1.1,1.7,0.8,4-0.7,5.3l-4.2,4.1l5.7-3.3c2-1.2,4.7-0.5,5.8,1.6c0.9,1.6,0.7,3.7-0.6,5l-12.9,13.7
		l8.1-4.7c2-1.2,4.7-0.5,5.8,1.6c1,1.7,0.7,3.8-0.7,5.1l-8.9,9l2.6-1.5c1.7-1,3.8-0.7,5.2,0.7c1.4,1.4,1.6,3.5,0.6,5.2l-8.3,13.9
		l1.1-0.6c2-1.2,4.6-0.5,5.8,1.5l0,0c1.2,2,0.5,4.6-1.5,5.8l0,0l-15.3,8.8C280.6,327.9,279.9,328.1,279.1,328.2L279.1,328.2z"/>
	<path class="st4" d="M326.4,276.6c-2.3,0-4.3-1.9-4.3-4.2c0-1.1,0.4-2.1,1.1-2.9l18.3-20.3l-41.4,23.9c-2,1.2-4.7,0.5-5.8-1.6
		c-1.1-1.9-0.6-4.3,1.1-5.5l0.5-0.4l-5.8,3.4c-1.9,1.1-4.4,0.6-5.6-1.2c-1.3-1.8-0.9-4.3,0.7-5.7l21.1-17.9l-28.7,16.6
		c-2,1.2-4.7,0.5-5.8-1.6c-0.9-1.6-0.7-3.6,0.5-4.9l17.2-19.2l-12.1,7c-1.7,1-4,0.7-5.3-0.8s-1.5-3.7-0.3-5.4l5.5-7.6
		c-1.5-1.8-1.3-4.5,0.4-6c0.2-0.2,0.4-0.3,0.7-0.5l7-4.1c2-1.2,4.7-0.5,5.8,1.6c0.8,1.5,0.7,3.3-0.2,4.6l-0.6,0.8l17.8-10.2
		c2-1.2,4.7-0.5,5.8,1.6c0.9,1.6,0.7,3.6-0.5,4.9l-17.2,19l46.6-26.9c1.9-1.1,4.4-0.6,5.6,1.2c1.3,1.8,0.9,4.3-0.7,5.7l-21.1,18
		l27-15.6c2-1.2,4.7-0.5,5.8,1.6c1.1,1.9,0.6,4.3-1.1,5.5l-0.5,0.4l2.8-1.6c2-1.2,4.6-0.5,5.8,1.5c0.9,1.6,0.7,3.7-0.5,5l-18.3,20.3
		l24.7-14.2c2-1.2,4.6-0.5,5.8,1.5c0,0,0,0,0,0.1c1.2,2,0.5,4.6-1.5,5.8l0,0L328.5,276C327.9,276.4,327.1,276.6,326.4,276.6
		L326.4,276.6z"/>
	<path class="st5" d="M373.2,247.3c-2.4,0-4.3-1.9-4.3-4.3c0-1.3,0.6-2.5,1.5-3.3l10.1-8.4L359,243.7c-1.9,1.1-4.4,0.6-5.6-1.2
		c-1.3-1.8-0.9-4.3,0.7-5.7l28.9-24.5l-39,22.6c-2,1.2-4.7,0.5-5.8-1.6c-1.1-1.9-0.6-4.3,1.2-5.6l17.2-12.5l-43.4,25.1
		c-2,1.2-4.6,0.5-5.8-1.5c-1.1-1.9-0.6-4.4,1.3-5.7l29.7-20.3L296,237.3c-2,1.2-4.6,0.5-5.8-1.5l0,0c-1.2-2-0.5-4.6,1.5-5.8l0,0
		l139.9-80.8c2-1.2,4.6-0.5,5.8,1.5c1.1,1.9,0.6,4.4-1.3,5.7l-29.7,20.3l18-10.4c2-1.2,4.7-0.5,5.8,1.6c1.1,1.9,0.6,4.3-1.2,5.6
		L411.8,186l8-4.6c2-1.2,4.6-0.6,5.9,1.4c1.1,1.8,0.7,4.2-1,5.6l-28.9,24.5l23.6-13.6c2-1.3,4.6-0.7,5.9,1.3c1.2,1.9,0.8,4.4-1,5.7
		l-10.4,8.6c2.2-0.8,4.7,0.4,5.4,2.6c0.7,1.9-0.1,4-1.8,5.1L375.3,247C374.7,247.1,374,247.3,373.2,247.3L373.2,247.3z M177.4,28.5
		c-2.4,0-4.3-1.9-4.3-4.2c0-1.5,0.8-3,2.2-3.7l24.6-14.2c2-1.2,4.6-0.5,5.8,1.5l0,0c1.2,2,0.5,4.6-1.5,5.8l0,0l-24.6,14.2
		C178.9,28.3,178.2,28.5,177.4,28.5L177.4,28.5z"/>
	<path class="st5" d="M250.9,260c-2.4,0-4.3-1.9-4.3-4.3c0-1.4,0.7-2.8,1.9-3.6l67.2-44.5L233,255.4c-2,1.2-4.6,0.5-5.8-1.5
		c-1.1-2-0.5-4.5,1.4-5.7l63.6-41.3l-91,52.5c-2,1.2-4.7,0.5-5.8-1.6c-1.1-2-0.5-4.5,1.4-5.7l14.5-9.1l-24.1,13.9
		c-2,1.2-4.6,0.5-5.8-1.5s-0.5-4.5,1.4-5.8l76.8-49.2l-85.7,49.5c-2,1.2-4.6,0.6-5.9-1.4c-1.2-2-0.6-4.6,1.4-5.9l0,0l90.2-58.2
		l-118.3,68.3c-2,1.2-4.6,0.6-5.9-1.4c-1.2-2-0.6-4.6,1.4-5.9l113.8-73.3l-127.5,73.6c-2,1.2-4.6,0.5-5.8-1.5l0,0
		c-1.2-2-0.6-4.6,1.4-5.8l85.1-53.5L113.6,237c-2,1.2-4.7,0.5-5.8-1.6c-1.1-2-0.5-4.5,1.4-5.7l66.4-41.4l-67.9,39.2
		c-2,1.2-4.6,0.6-5.9-1.5c-1.2-2-0.6-4.6,1.5-5.9l0,0l75.1-47.1l-74.1,42.8c-2,1.2-4.6,0.6-5.9-1.4c-1.2-2-0.6-4.6,1.4-5.9
		l120.4-77.9l-115,66.4c-2,1.2-4.6,0.6-5.9-1.4c-1.2-2-0.6-4.6,1.4-5.9l101.6-66.5L92.8,186.6c-2,1.2-4.6,0.6-5.9-1.5
		c-1.2-2-0.6-4.6,1.5-5.9l38.8-24.4l-40.6,23.5c-2,1.2-4.6,0.6-5.9-1.4c-1.2-2-0.6-4.6,1.4-5.9l0,0l89.4-57.8l-90.4,52.2
		c-2,1.2-4.6,0.5-5.8-1.5c-1.2-2-0.6-4.5,1.3-5.8L184.8,86L79.4,147c-2,1.2-4.6,0.5-5.8-1.5c-1.1-1.9-0.6-4.4,1.3-5.7l80-54.8
		l-67.6,39c-2,1.2-4.6,0.5-5.8-1.5c-1.2-2-0.6-4.5,1.3-5.8l43.5-29l-16.2,9.4c-2,1.2-4.6,0.5-5.8-1.5c-1.2-2-0.6-4.5,1.3-5.8
		l12.4-8.3l-7.2,4.2c-2,1.2-4.6,0.5-5.8-1.6c-0.9-1.6-0.7-3.7,0.6-5l18.2-19.5c-2.1,1.1-4.7,0.3-5.7-1.8c-1-2-0.3-4.5,1.6-5.6
		L144.1,38c2-1.2,4.6-0.6,5.8,1.5c1,1.6,0.7,3.7-0.6,5.1l-18.2,19.5l96.7-55.7c2-1.2,4.6-0.5,5.8,1.5s0.6,4.5-1.3,5.8l-12.4,8.2
		l17.7-10.2c2-1.2,4.6-0.5,5.8,1.5s0.6,4.5-1.3,5.8l-43.5,28.9L246.9,22c2-1.2,4.6-0.5,5.8,1.5c1.1,1.9,0.6,4.4-1.3,5.7L171.6,84
		l123.6-71.4c2-1.2,4.6-0.5,5.8,1.5c1.2,2,0.6,4.5-1.3,5.8L191.5,92l122.3-70.6c2-1.2,4.6-0.6,5.9,1.4c1.2,2,0.6,4.6-1.4,5.9
		l-89.4,57.8L324,31.6c2-1.2,4.6-0.6,5.9,1.5c1.2,2,0.6,4.6-1.5,5.9l-38.8,24.3l41.9-24.2c2-1.2,4.6-0.6,5.9,1.4
		c1.2,2,0.6,4.6-1.4,5.9l-101.7,66.5L362,39.1c2-1.2,4.6-0.6,5.9,1.4c1.2,2,0.6,4.6-1.4,5.9L246,124.2l132.8-76.7
		c2-1.2,4.6-0.6,5.9,1.5c1.2,2,0.6,4.6-1.5,5.9L308.1,102l79.8-46c2-1.2,4.7-0.5,5.8,1.6c1.1,2,0.5,4.5-1.4,5.7L326,104.7l68.5-39.5
		c2-1.2,4.6-0.5,5.8,1.5c1.2,2,0.6,4.6-1.4,5.8L313.5,126l85.7-49.5c2-1.2,4.6-0.6,5.9,1.4c1.2,2,0.6,4.6-1.4,5.9l-113.8,73.3
		L403,91.8c2-1.2,4.6-0.6,5.9,1.4c1.2,2,0.6,4.6-1.4,5.9l0,0l-90.1,58.2l98.8-57c2-1.2,4.6-0.5,5.8,1.5c1.2,2,0.5,4.5-1.4,5.8
		l-76.8,49.2l80.9-46.7c2-1.2,4.7-0.5,5.8,1.6c1.1,2,0.5,4.5-1.4,5.7l-14.6,9.1l14.5-8.4c2-1.2,4.6-0.5,5.8,1.5
		c1.1,2,0.5,4.5-1.4,5.7l-63.7,41.4l62.6-36.1c2-1.2,4.6-0.6,5.9,1.4c1.2,2,0.6,4.6-1.4,5.9l-67.2,44.5l62.6-36.1
		c2-1.2,4.6-0.5,5.8,1.5c0,0,0,0,0,0.1c1.2,2,0.5,4.6-1.5,5.8l0,0L253.2,259.4C252.5,259.8,251.8,260,250.9,260L250.9,260z"/>
	<g>
		<path class="st6" d="M2.4,467c-8.2,29.7,190.7,7,222,13.7c3.1,35.6,56.3,31.3,62.7,0c37.9-6.8,215.8,15.9,222.6-13
			c0.3-105.8-0.2-212,0-317.9c3.6-20-19.7-17.7-34.1-16.2c4.2-29.2-37.2-29.4-57-36.4c-4.2-2.6-7.1-3.9-8.7-10.1
			c-5-34.8-40.3-55.9-73.5-47.4c-17-29.9-54.6-34.5-81.4-16.5c-26.4-28.5-74.9-19.4-92.3,14.5c-33.4-1.3-62.7,24.7-60.8,58.8
			c-21.2,7.8-66.3,6.9-65.7,36.8c-41.9-7-33.9,26.2-33.8,54.5C2.7,280.9,1.7,373.9,2.4,467L2.4,467z M292.9,237.5
			c14.5,3.7,29.5,2,43.3-3.9c9.1,7.3,20.4,11.6,32.1,12.1c-21.8,30.3-66.3,31.5-91.9,5.2C282.7,247.4,288.3,242.9,292.9,237.5
			L292.9,237.5z M265.2,255.7c8.3,7.7,18.1,13.4,28.9,16.8c-8.6,14.8,2.6,36.7-9.8,48.5c-25.3-4.2-6.8-49.1-31.5-62.8
			C256.9,257.8,261.1,257,265.2,255.7L265.2,255.7z M463.2,129.2c-4.8,526.9,46.7,186.4-200.9,304.3V320.1
			c11.8,15.1,40.2,5.2,40.1-13.9c0.1-10.5-0.4-21.1,2.5-31.3c28,4.8,57.3-7.8,74.9-29.8c35.2-3.7,53.6-37.7,48.7-70.2
			c15.9-18.3,17.2-47.4,2-66.6C441.9,112.8,462.8,114.5,463.2,129.2L463.2,129.2z M443.2,440.3H265.9
			C315.3,398.1,390.6,411.5,443.2,440.3L443.2,440.3z M162.6,43.9c2.6,0.4,8.9-0.9,10.1-3.7c10.7-33.9,55-37.8,74-8.8
			c2,2.6,9.7-0.9,11.4-2.5c22.5-21,54-9,66.9,16c1,1.9,5.3,1,6.8,0.5c34.1-10.4,63.9,18.1,66.2,51c18.7,8.9,30.7,26.1,31,47.1
			c0,13.3-5.7,25.9-14.4,35.3c5.4,23.6-3.1,53.2-29.1,60.6c-14.7,4-29.5-2.3-40.3-12.2c-2-1.8-7.6,0.1-9.4,1.1
			c-16.3,13.5-35.8-3.7-50.6,5.7c-21.3,30.9-37,14.2-62.9,13.8c-30.1,17.4-39.7-10.8-58.4-5.8c-34.1,19.4-61.3-20.7-54.8-51.1
			c-32.8-19.1-36-72.3,1.8-88.4c1.1-0.5,4.2-1.6,4-3.3C110.2,69.8,130.3,38.5,162.6,43.9L162.6,43.9z M48.8,127.1
			c2.8-18.7,33.7-18.7,49.3-23.8c-36.2,19.1-35,70.2-2.6,92c-7,38.9,32.9,70.1,69,52c17.1,12.9,38.9,14,58.1,5.7
			c4.2,2,8.6,3.4,13.1,4.3c4.6,5.1,10.2,9.6,14,15.4v158.6C0.9,321.1,54,654.4,48.8,127.1z M243.7,440.3H65.3
			C119.3,409.1,191.7,399.9,243.7,440.3L243.7,440.3z M14.7,437.7v-294c-0.1-9.1,15.3-2.4,21.6-4.3C37,239.1,36,339,36.7,438.7
			c1.6,6.8,5.9,7.8,11.3,8.5h180c344.7-7.3,227.6,69.6,247.6-308.4c12.3-1.5,24.4,1,21.7,14.2v201c-0.1,40.1,0.9,81.3-0.2,121
			c-1.8,1.5-11.4,0-13.6,0c-68,4.1-143.6-8.1-208,4.5c-0.7,13.6-12.4,26.3-26.5,18.2c-7.9-4.5-11.8-12.7-12.3-21.5
			c-37.5-3.4-78.1,0-116.7-1.2c-23.9-4.8-95.1,10.8-105.2-7.6C13.1,458.1,14.7,447.1,14.7,437.7L14.7,437.7z"/>
		<path class="st6" d="M371.9,165.6C372.9,165.6,372.3,165.6,371.9,165.6z M367.5,166.7L367.5,166.7
			C367,167,366.4,167.4,367.5,166.7z M368.6,166.3c0.7-0.2,0.9-0.2,0.7-0.2L368.6,166.3z"/>
		<path class="st6" d="M337.2,165.5c4.9,0,9.8,2.1,13.5,5.4c-9.9,9.5-8.9,31,5.4,15.2c0-7.2,4.3-16.1,11.6-19.4l-0.2,0.1
			c0.4-0.2,0.8-0.3,1.2-0.5l-0.3,0.1c1.2-0.3,2.3-0.7,3.5-0.8h-0.3c25.5-5.5-3.7-10.1-12.5-1.8C355.1,157,323.3,158.4,337.2,165.5
			L337.2,165.5z M239.5,179.7c-0.1,3.1,2.9,4,5.4,4.1c2.9,0.1,5.8,0.9,8.4,2.2c6.8,3.7,11.2,10.6,11.7,18.3
			c-0.4,3.4,2.5,5.5,5.8,5.1c12.5-1.3,5-17.7,0.1-23.7c30.3-7.3,12.7-15.4-5.6-5.2C258.9,176.3,243.5,169.6,239.5,179.7L239.5,179.7
			z M270.9,185.7C270.9,185.6,270.9,185.6,270.9,185.7z M253.3,185.9L253.3,185.9L253.3,185.9z M153.1,184
			c4.3-0.5,12.3,4.3,13.2,5.8c4.1,3.9,6.6,9.8,6.6,15.5c0,3.1,3,4.6,5.8,4.4c12.5-1.4,4.9-17.6,0.1-23.7c2.2-1.9,7-2.9,8.6-2.8
			c22.7-7.3-7-10.5-14.5-2.7c-6.4-4.2-22-10.9-25.7-0.7C147.2,182.9,150.4,183.9,153.1,184L153.1,184z M173.1,104.1
			C173.5,103.8,173.6,103.5,173.1,104.1z"/>
		<path class="st6" d="M159.8,114.7c6.4,0,12.6-1.7,18.2-4.8c4,3.9,1.2,12.5,5.9,14.6c15,2,9.9-15.4,3.4-22.3
			c9.1-8.6,9-30.8-5.8-16.2c0,7-3,14-8.5,18.2c0-0.1,0.1-0.1,0.1-0.1C170.2,107.2,146.3,109.1,159.8,114.7L159.8,114.7z M309,106.9
			C310.2,106.6,309.6,106.7,309,106.9z M286.2,70.9c6.9,0.6,10-3.4,12.1-9c17.2-5.9-6.7-6.2-11.1,0.5
			C285.2,64.2,281.6,70.7,286.2,70.9z M294.7,62.4c0.8,0,1.5-0.2,2.2-0.3C296.2,62.3,295.5,62.4,294.7,62.4z M353.5,114.1
			c6.6,2.7,11-2.3,12.5-8c10.2-0.9,8.1-10.2-1.7-7C358.4,100,348.6,108.1,353.5,114.1z M365.2,106.2h-0.6c0.3,0,0.6-0.1,0.8-0.1
			C365.4,106.2,365.3,106.2,365.2,106.2z M235.5,125.5c-8.8-4.3-31.1,15.6-13,13.2c5.3-0.4,5.2-4.8,7.5-8.3
			C231.9,130.2,239.1,127.6,235.5,125.5z M123.1,156.8c6.6,2.8,11-2.3,12.5-8c7.4,0.3,9.9-9.3,0.8-7.6
			C129.6,141.4,117.9,149.8,123.1,156.8z M134.9,148.9h-0.6c0.3,0,0.6-0.1,0.9-0.1L134.9,148.9z M219.6,63.9
			c14.3-2.2,9.5,24.1,23.3,15.4c8-10.1-7.9-24.6-18.8-23.7C218.6,54.3,211,62.7,219.6,63.9L219.6,63.9z"/>
		<path class="st6" d="M277.7,106.5c3-0.1,5.9,0.6,8.7,1.8l-0.6-0.2c1.8,0.6,3.4,1.8,4.9,3c-6.4,6.2-11.8,26.8,3.4,18.9
			c4.1-2.5,1.8-8.5,4.2-12.4c2.2-4.6,5.9-8.9,10.8-10.8l-0.3,0.1c28.7-5,2.9-13-9.4-3.2C294.7,96.5,263.1,97,277.7,106.5
			L277.7,106.5z M281.8,106.9C282.1,107,282.1,107,281.8,106.9z"/>
		<path class="st6" d="M285.8,108.1C285.7,108.1,285.6,108.1,285.8,108.1z"/>
	</g>
</g>
</svg>
