<?xml version="1.0" encoding="utf-8"?>
<!-- Generator: Adobe Illustrator 27.0.0, SVG Export Plug-In . SVG Version: 6.00 Build 0)  -->
<svg version="1.1" id="Слой_1" xmlns="http://www.w3.org/2000/svg" xmlns:xlink="http://www.w3.org/1999/xlink" x="0px" y="0px" viewBox="0 0 512 512"
	 style="enable-background:new 0 0 512 512;" xml:space="preserve">
<style type="text/css">
	.st0{fill:#A53C50;}
	.st1{fill:#CD4C60;}
	.st2{fill:#EABEA3;}
	.st3{fill:#262626;}
</style>
<g>
	<path class="st0" d="M401.7,30.5c-2.4,0-4.3-1.9-4.3-4.3c0-1.5,0.8-2.9,2.1-3.7l26.7-15.4c2-1.3,4.6-0.7,5.9,1.3s0.7,4.6-1.3,5.9
		c-0.1,0.1-0.2,0.1-0.3,0.2l-26.7,15.4C403.2,30.3,402.5,30.5,401.7,30.5z"/>
	<path class="st0" d="M434.7,151.1c-2.4,0-4.3-1.9-4.3-4.3c0-1.3,0.6-2.5,1.5-3.3l24-20.1L418,145.4c-2.1,1.2-4.7,0.4-5.8-1.6
		c-1-1.9-0.6-4.2,1.1-5.5l25.2-18.6l-36.8,21.3c-2,1.2-4.7,0.4-5.8-1.6c-1.1-1.9-0.6-4.3,1.2-5.5l38.2-27.8l-51.8,29.9
		c-2,1.2-4.6,0.5-5.8-1.5c-1.1-1.9-0.6-4.4,1.3-5.7l25.3-17.3l-35.5,20.5c-2.1,1.2-4.7,0.4-5.8-1.6c-1.1-1.9-0.6-4.3,1.2-5.5
		l57-40.8l-73.2,42.2c-2.1,1.1-4.7,0.4-5.8-1.7c-1-1.9-0.5-4.3,1.3-5.5l43.8-29.7l-56,32.3c-2,1.2-4.7,0.4-5.8-1.6
		c-1.1-1.9-0.5-4.4,1.3-5.7l19-12.4l-27.8,16c-2.1,1.1-4.7,0.3-5.8-1.7c-1-1.9-0.5-4.3,1.3-5.5l44.8-30l-56.7,32.8
		c-2.1,1.2-4.7,0.4-5.8-1.6c-1.1-1.9-0.5-4.4,1.3-5.6l43.5-29.1l-52.4,30.2c-2,1.2-4.7,0.5-5.8-1.6c-1.1-1.9-0.6-4.3,1.2-5.6
		l23.2-16.4l-24.6,14.2c-2,1.2-4.6,0.5-5.8-1.5c-1.1-1.9-0.6-4.3,1.1-5.6l41-31.5l-41.4,23.9c-2,1.2-4.6,0.5-5.8-1.5
		c-1.1-1.9-0.6-4.4,1.2-5.7l11.2-7.9l-7.8,4.5c-2.1,1.2-4.7,0.4-5.8-1.6c-1-1.8-0.6-4,0.9-5.3l33-27.8l-25.3,14.7
		c-2,1.2-4.6,0.6-5.9-1.4c-1.1-1.8-0.8-4.1,0.8-5.4l16.3-15.4c-2.3-0.2-4.1-2.3-3.9-4.6c0.1-1.4,0.9-2.6,2.1-3.3l26.6-15.4
		c2-1.2,4.6-0.6,5.9,1.4c1.1,1.8,0.7,4-0.8,5.4l-13.9,13.1l36.1-20.8c2.1-1.2,4.7-0.4,5.8,1.6c1,1.8,0.6,4-0.9,5.3L313.5,41
		l47.6-27.5c2-1.2,4.6-0.5,5.8,1.5c1.1,1.9,0.6,4.4-1.2,5.7l-11.1,7.8l15.1-8.7c2-1.2,4.6-0.5,5.8,1.5c1.1,1.9,0.6,4.3-1.1,5.6
		l-41,31.5l47.7-27.5c2-1.2,4.7-0.5,5.8,1.6c1.1,1.9,0.6,4.3-1.2,5.6l-23.1,16.4l85-49.1c2.1-1.2,4.7-0.4,5.8,1.6
		c1.1,1.9,0.5,4.4-1.3,5.6l-43.4,29.1l55.9-32.3c2.1-1.1,4.7-0.4,5.8,1.7c1.1,1.9,0.5,4.3-1.3,5.6l-44.8,30.1l52.8-30.5
		c2-1.2,4.6-0.6,5.9,1.4c1.2,2,0.6,4.6-1.4,5.9l0,0l-19,12.4L484.9,23c2-1.2,4.6-0.5,5.8,1.5c1.2,2,0.6,4.5-1.3,5.7l-43.8,29.7
		l46.8-27c2.1-1.1,4.7-0.4,5.8,1.7c1,1.9,0.5,4.2-1.2,5.5l-56.9,40.7L498.7,47c2-1.2,4.6-0.5,5.8,1.5c1.1,1.9,0.6,4.4-1.3,5.7
		l-25.4,17.3l23-13.3c2-1.2,4.7-0.4,5.8,1.6c1.1,1.9,0.6,4.3-1.2,5.5l-38.1,27.8l32.7-18.9c2.1-1.2,4.7-0.4,5.8,1.6
		c1,1.9,0.6,4.2-1.1,5.5L479.5,100l14.5-8.3c2-1.2,4.7-0.5,5.8,1.6c1,1.8,0.6,4.1-1,5.4l-30.6,25.7c2.2,0.8,3.3,3.3,2.5,5.5
		c-0.3,0.9-1,1.7-1.8,2.2l-32.1,18.5C436.2,150.9,435.4,151.1,434.7,151.1L434.7,151.1z"/>
	<path class="st1" d="M284.1,115.1c-2.4,0-4.3-1.9-4.3-4.3c0-1.5,0.8-2.9,2.1-3.7l34.6-20c2.1-1.1,4.7-0.3,5.8,1.8
		c1,2,0.4,4.4-1.5,5.6l-34.6,20C285.6,114.9,284.8,115.1,284.1,115.1z"/>
	<path class="st1" d="M345.6,339.2c-2.4,0-4.3-1.9-4.3-4.3c0-1.2,0.5-2.4,1.4-3.2l7.1-6.5l-20.1,11.6c-2,1.2-4.7,0.5-5.8-1.6
		c-1.1-1.9-0.6-4.3,1.2-5.6l12.6-9.1l-25.1,14.5c-2.1,1.1-4.7,0.4-5.8-1.7c-1-1.9-0.5-4.2,1.2-5.5l52.4-37.2l-72.5,41.9
		c-2.1,1.1-4.7,0.4-5.8-1.7c-1.1-1.9-0.5-4.3,1.3-5.6l32.3-21.2l-46.1,26.6c-2,1.2-4.6,0.5-5.8-1.6c-1.1-2-0.5-4.5,1.3-5.7
		l62.7-41.3l-80.3,46.4c-2,1.2-4.6,0.6-5.9-1.5c-1.2-2-0.6-4.6,1.4-5.8l85-55.9l-105.2,60.7c-2.1,1.1-4.7,0.4-5.8-1.6
		c-1.1-1.9-0.5-4.4,1.4-5.6l96.5-62.8l-117,67.6c-2,1.2-4.6,0.6-5.9-1.4c-1.2-2-0.6-4.6,1.4-5.9l0,0l63.1-39.7l-78.1,45.1
		c-2.1,1.1-4.7,0.3-5.8-1.8c-1-1.9-0.4-4.3,1.4-5.5l87.4-55.2l-104.6,60.3c-2.1,1.1-4.7,0.4-5.8-1.6c-1.1-2-0.5-4.4,1.4-5.6
		l119.8-76.4l-133,76.8c-2.1,1.1-4.7,0.4-5.8-1.7c-1.1-1.9-0.5-4.4,1.4-5.6l119.5-75.8L128.9,302c-2,1.2-4.6,0.6-5.9-1.4
		c-1.2-2-0.6-4.6,1.4-5.9l143.2-92.2l-150.8,87.1c-2,1.2-4.6,0.6-5.9-1.5c-1.2-2-0.6-4.6,1.5-5.9l0,0l89.5-56l-94,54.3
		c-2.1,1.1-4.7,0.4-5.8-1.7c-1.1-2-0.5-4.4,1.4-5.6l64.1-39.8L100,272.5c-2,1.2-4.6,0.6-5.9-1.4c-1.2-2-0.6-4.6,1.4-5.9l99-62.4
		l-104,60c-2.1,1.1-4.7,0.4-5.8-1.7c-1.1-1.9-0.5-4.4,1.4-5.6l122.4-78.9L80.6,250.4c-2,1.2-4.7,0.5-5.8-1.6
		c-1.1-1.9-0.5-4.4,1.3-5.6l72.7-49.3L73,237.6c-2,1.3-4.6,0.7-5.9-1.3c-1.3-2-0.7-4.6,1.3-5.9l74.7-51.1l-76,43.9
		c-2.1,1.1-4.7,0.3-5.8-1.7c-1-1.9-0.5-4.3,1.3-5.5l45.3-29.9l-43.8,25.3c-2,1.2-4.6,0.5-5.8-1.6c-1.1-1.9-0.6-4.4,1.3-5.7
		l49.7-33.3l-46.9,27.1c-2,1.2-4.7,0.4-5.8-1.6c-1.1-1.9-0.5-4.4,1.3-5.7l18.4-12l-14.1,8.1c-2,1.2-4.7,0.5-5.8-1.6
		c-1.1-1.9-0.6-4.3,1.3-5.6l51.5-36l-44.8,25.8c-2,1.3-4.6,0.7-5.9-1.2c-1.3-2-0.7-4.6,1.2-5.9l46-33.8l-34.4,19.9
		c-2.1,1.1-4.7,0.4-5.8-1.6c-0.9-1.7-0.6-3.8,0.8-5.2l29.9-27.2l-0.4,0.2c-2,1.3-4.6,0.7-5.9-1.3c-1.3-2-0.7-4.6,1.3-5.9
		c0.1-0.1,0.2-0.1,0.3-0.2l34.6-20c2.1-1.1,4.7-0.4,5.8,1.6c0.9,1.7,0.6,3.8-0.8,5.2l-29.9,27.2l67.2-38.8c2-1.2,4.7-0.5,5.8,1.6
		c1.1,1.9,0.6,4.3-1.2,5.6l-45.9,33.8l63.2-36.5c2-1.2,4.7-0.5,5.8,1.6c1.1,1.9,0.6,4.3-1.3,5.6l-51.5,36l63-36.4
		c2-1.2,4.7-0.4,5.8,1.6c1.1,1.9,0.5,4.4-1.3,5.7L192.4,113L216,99.3c2.1-1.1,4.7-0.3,5.8,1.7c1,1.9,0.5,4.3-1.3,5.5l-49.6,33.3
		l55.6-32.1c2.1-1.2,4.7-0.4,5.8,1.6c1.1,1.9,0.5,4.4-1.3,5.6l-45.3,29.9l49.5-28.6c2-1.2,4.7-0.5,5.8,1.6c1.1,1.9,0.5,4.4-1.3,5.6
		l-74.7,51.1l81.4-46.9c2-1.2,4.7-0.5,5.8,1.6c1.1,1.9,0.5,4.4-1.3,5.6l-72.7,49.3L355.1,82.1c2-1.2,4.7-0.5,5.8,1.6
		c1.1,2,0.5,4.4-1.4,5.7l-122.3,78.9l141.9-81.9c2.1-1.2,4.7-0.4,5.8,1.6c1.1,2,0.5,4.4-1.4,5.7l-99,62.5l110.2-63.6
		c2.1-1.1,4.7-0.4,5.8,1.7c1.1,2,0.5,4.4-1.4,5.6l-64.2,39.9l70.8-40.8c2-1.2,4.6-0.6,5.9,1.5c1.2,2,0.6,4.6-1.5,5.9l-89.6,56
		l95.6-55.2c2-1.2,4.6-0.5,5.8,1.5c1.2,2,0.5,4.5-1.4,5.8l-143.2,92.2l150.5-86.9c2.1-1.1,4.7-0.3,5.8,1.8c1,1.9,0.4,4.3-1.4,5.5
		l-119.5,75.8l123.1-71.1c2-1.2,4.6-0.6,5.9,1.4c1.2,2,0.6,4.6-1.4,5.9l-119.7,76.3l121.8-70.3c2.1-1.1,4.7-0.3,5.8,1.8
		c1,1.9,0.4,4.3-1.4,5.5l-87.4,55.2l86.9-50.2c2.1-1.2,4.7-0.4,5.8,1.6c1.1,2,0.5,4.4-1.4,5.7l-63.1,39.7l61.1-35.3
		c2.1-1.1,4.7-0.4,5.8,1.6c1.1,1.9,0.5,4.4-1.4,5.6l-96.5,62.8l93.1-53.8c2-1.2,4.6-0.6,5.9,1.5c1.2,2,0.6,4.6-1.4,5.8l-85,55.9
		l78.8-45.5c2.1-1.2,4.7-0.4,5.8,1.6c1.1,1.9,0.5,4.4-1.3,5.6L390,251.4l53.1-30.7c2.1-1.1,4.7-0.4,5.8,1.7c1.1,1.9,0.5,4.3-1.3,5.6
		l-32.3,21.1l19.5-11.2c2.1-1.1,4.7-0.4,5.8,1.7c1,1.9,0.5,4.2-1.2,5.5L387,282.3l19-11c2-1.2,4.7-0.5,5.8,1.6
		c1.1,1.9,0.6,4.3-1.2,5.6l-26.9,19.4c0.7,0.3,1.2,0.8,1.7,1.4c1.3,1.8,1,4.2-0.6,5.7l-26,23.6c0.5,1.9-0.3,3.8-2,4.7l-9.2,5.3
		C347.1,339,346.3,339.2,345.6,339.2L345.6,339.2z"/>
	<path class="st2" d="M429.1,351.4c-2.4,0-4.3-1.9-4.3-4.3c0-1.5,0.8-2.9,2.1-3.7l53.8-31c2-1.2,4.7-0.4,5.8,1.6
		c1.2,2,0.5,4.6-1.6,5.8l-53.8,31C430.6,351.1,429.8,351.3,429.1,351.4L429.1,351.4z M242.4,388c-2.4,0-4.3-1.9-4.3-4.3
		c0-1.5,0.8-2.9,2.1-3.7l88.2-50.9c2.1-1.1,4.7-0.4,5.8,1.7c0.9,1.7,0.6,3.8-0.8,5.1l-26.4,23.8l46.3-26.7c2-1.2,4.6-0.5,5.8,1.5
		c1.1,1.8,0.7,4.2-1,5.5L341,354.1l30.1-17.4c2.1-1.2,4.7-0.4,5.8,1.6c1,1.7,0.6,3.9-0.9,5.3L359.6,358l21.3-12.3
		c2-1.2,4.6-0.5,5.8,1.5c1,1.7,0.7,3.9-0.8,5.3l-9.3,8.7l7.5-4.3c2-1.2,4.7-0.5,5.8,1.6c0.9,1.6,0.7,3.6-0.5,5l-5.9,6.6
		c2.2,0.8,3.4,3.2,2.6,5.4c-0.3,1-1,1.8-1.9,2.3l-16.5,9.5c-2,1.2-4.7,0.5-5.8-1.6c-0.9-1.6-0.7-3.6,0.5-5l2.8-3.1l-17,9.8
		c-2,1.2-4.6,0.5-5.8-1.5c-1-1.7-0.7-3.9,0.8-5.3l9.3-8.7l-26.8,15.5c-2.1,1.2-4.7,0.4-5.8-1.6c-1-1.7-0.6-3.9,0.9-5.3l16.5-14.4
		l-36.9,21.3c-2,1.2-4.7,0.5-5.8-1.6c-1-1.8-0.6-4.1,1-5.4l17.1-14.1l-36.5,21.1c-2.1,1.1-4.7,0.4-5.8-1.7c-0.9-1.7-0.6-3.8,0.8-5.1
		l26.4-23.8l-53.1,30.6C243.9,387.8,243.2,388,242.4,388L242.4,388z"/>
	<path class="st2" d="M274.1,506c-2.4,0-4.3-1.9-4.3-4.3c0-1.4,0.7-2.8,1.9-3.6l59.2-39.1l-71.2,41.1c-2.1,1.2-4.7,0.4-5.8-1.6
		c-1.1-1.9-0.5-4.4,1.3-5.6l122-80.2l-139.3,80.5c-2,1.2-4.6,0.5-5.8-1.5c-1.1-2-0.5-4.5,1.4-5.7l124.9-81.2l-141.5,81.6
		c-2,1.2-4.7,0.5-5.8-1.6c-1.1-1.9-0.6-4.3,1.2-5.6l15.4-11.3L203.3,482c-2.1,1.2-4.7,0.4-5.8-1.6c-1.1-1.9-0.5-4.2,1.2-5.5
		l14.5-10.5L190,477.7c-2,1.2-4.6,0.5-5.8-1.6c-1.1-1.8-0.6-4.2,1.1-5.5l34.8-27.1l-48.7,28.2c-2.1,1.1-4.7,0.4-5.8-1.7
		c-1-1.9-0.5-4.2,1.2-5.5l6.7-4.7l-14,8.1c-2,1.3-4.6,0.7-5.9-1.2c-1.3-2-0.7-4.6,1.2-5.9l0,0l35.5-26.4l-48.3,27.9
		c-2.1,1.2-4.7,0.4-5.8-1.6c-1-1.9-0.6-4.2,1.1-5.5l41.5-31l-55.6,32.1c-2,1.2-4.7,0.4-5.8-1.6c-1.1-1.9-0.5-4.4,1.3-5.6l74.4-49.5
		l-88.1,50.9c-2.1,1.2-4.7,0.4-5.8-1.6c-1.1-1.9-0.5-4.4,1.3-5.6l61.7-40.6l-78,45c-2.1,1.1-4.7,0.4-5.8-1.7c-1-1.9-0.5-4.3,1.3-5.5
		l60.2-39.5l-80.8,46.6c-2,1.2-4.6,0.6-5.9-1.4c-1.2-2-0.6-4.6,1.4-5.9l0,0l83.3-56.1L28.5,447.3c-2,1.2-4.6,0.5-5.8-1.6
		c-1.1-2-0.5-4.5,1.3-5.7l75.3-49.7l-85.6,49.4c-2.1,1.1-4.7,0.3-5.8-1.7c-1-1.9-0.5-4.3,1.3-5.5L62.3,398l-51.4,29.7
		c-2.1,1.1-4.7,0.4-5.8-1.7c-1.1-1.9-0.5-4.3,1.3-5.6l56.7-37.5l-52.2,30.2c-2.1,1.1-4.7,0.4-5.8-1.7c-1-1.9-0.5-4.3,1.2-5.5
		l55.9-38.5L10.9,397c-2.1,1.2-4.7,0.4-5.8-1.6c-1-1.8-0.6-4.2,1.1-5.5l15.2-11.6l-10.5,6.1c-2,1.2-4.6,0.5-5.8-1.5
		c-1-1.8-0.7-4,0.9-5.4l11.9-10.4l-6.9,4c-1.7,1-3.8,0.7-5.2-0.7c-1.4-1.4-1.6-3.6-0.5-5.3l7.2-11.2c-2.3,0.6-4.6-0.7-5.3-3
		c-0.5-1.9,0.3-3.8,2-4.8l14.1-8.2c2-1.2,4.7-0.4,5.8,1.6c0.8,1.4,0.7,3-0.1,4.4l-7,10.9l29.4-16.9c2.1-1.2,4.7-0.4,5.8,1.6
		c1,1.7,0.6,3.9-0.9,5.3l-11.9,10.4l29.9-17.3c2-1.2,4.7-0.5,5.8,1.6c1.1,1.9,0.6,4.2-1.1,5.5l-15.2,11.6l87.4-50.4
		c2-1.2,4.7-0.5,5.8,1.6c1.1,1.9,0.5,4.4-1.3,5.6l-55.9,38.5l80.2-46.3c2.1-1.1,4.7-0.4,5.8,1.7c1.1,1.9,0.5,4.3-1.3,5.6l-56.7,37.5
		l72.1-41.7c2.1-1.1,4.7-0.3,5.8,1.7c1,1.9,0.5,4.3-1.3,5.5l-53,34.4l67.1-38.7c2.1-1.2,4.7-0.4,5.8,1.6c1.1,1.9,0.5,4.4-1.3,5.6
		l-75.4,49.8l92.8-53.6c2.1-1.1,4.7-0.4,5.8,1.7c1.1,1.9,0.5,4.3-1.3,5.6l-83.2,56.1l103-59.5c2.1-1.1,4.7-0.4,5.8,1.7
		c1,1.9,0.5,4.3-1.3,5.5L209,365.7l75.5-43.5c2-1.2,4.7-0.4,5.8,1.6c1.1,1.9,0.5,4.4-1.3,5.7l-61.8,40.6l77.4-44.7
		c2-1.2,4.6-0.5,5.8,1.5c1.2,2,0.6,4.5-1.3,5.8l-74.3,49.5l2.2-1.3c2-1.2,4.7-0.5,5.8,1.6c1.1,1.9,0.6,4.3-1.1,5.5l-41.5,31
		l49.5-28.6c2-1.2,4.6-0.5,5.8,1.5c1.1,1.9,0.6,4.3-1.1,5.6l-35.5,26.4l42.5-24.6c2.1-1.2,4.7-0.4,5.8,1.6c1.1,1.9,0.5,4.3-1.3,5.6
		l-6.8,4.7l10.2-5.9c2-1.2,4.7-0.4,5.8,1.6c1,1.8,0.6,4.1-1.1,5.5l-34.8,27l42.6-24.6c2.1-1.2,4.7-0.4,5.8,1.6
		c1.1,1.9,0.5,4.2-1.2,5.5L272,432.5l19-10.9c2-1.2,4.7-0.5,5.8,1.6c1.1,1.9,0.6,4.3-1.2,5.6L280.2,440l213.7-123.4
		c2.1-1.1,4.7-0.4,5.8,1.6c1.1,1.9,0.5,4.4-1.4,5.6L373.6,405L501,331.5c2.1-1.1,4.7-0.4,5.8,1.7c1,1.9,0.5,4.3-1.3,5.5l-122.1,80.2
		l65.1-37.6c2.1-1.2,4.7-0.4,5.8,1.6c1.1,1.9,0.5,4.4-1.3,5.6l-82,54.2c2.2,0.9,3.2,3.4,2.3,5.6c-0.4,0.9-1,1.6-1.8,2.1l-95.3,55
		C275.6,505.8,274.8,506,274.1,506L274.1,506z"/>
	<path class="st3" d="M52.4,336.3c-57.2-6.8-50.8,23-47.8,67.1c0,14.2-3.3,32.4,10.1,42c19.7,14.2,63.1,1.1,86.8,6.2
		c57.2,14.7,113.2,44.4,171.4,55.2c39.6,6.6,83.7-44.1,112.2-65.7c37.5-28.6,75.4-57,112.7-85.8c10-8.1,12.4-22.5,5.5-33.4
		c-6.7-10.9-21-14.4-32-7.8l-82.2,52c3.3-14.8-10.8-31.6-29.4-35c50-46.9,117.4-104.7,90.3-179.8c24.4-23.7,57.2-48,57-84.9
		C506.7,31.5,478,3.4,443,3.8C430.9,3.9,419.1,7.5,409,14c-4.3,2.8-13.6,15.9-18.3,16.7c-6.1,1-10.5-7.1-17.8-12.8
		c-62.5-46.7-132.7,27.5-89.6,89.6c-5.5,5.7-11.4,10.8-17.9,15.4c-14.6,9.7-2.2,9.3-13.4,5.4c-6.1-2.1-12.6-13.5-17.6-18
		C185.3,60.1,94.7,76,66.3,140.5C32,213.7,87.5,265.7,134.7,313.4C110.3,329.3,81.5,337.2,52.4,336.3L52.4,336.3z M358.3,378.9
		c-17.5,6-47.7,0-66.2,0h-95.6c-4.9,0-6,10.1-0.5,10.1h42.1c36.2,28.3,52.1,61.8,97.1,23l139.6-88.4c16.3-9.5,33.8,10.1,18.5,23.2
		c-258,184.6-135.7,168.9-399.1,93.5c-22.3-3.7-72.3,8.8-81.8-17.1c-3.6-18.9-3.6-38.3,0-57.2c7.5-25.1,27.7-19.6,49.7-19.6
		c16.6,1.1,33.1-1.8,48.3-8.4c21.8-10.4,38.8-25.6,64.1-25.1c57.9,4.1,115.7,20.8,173.5,27.4c0.5,0.2,1.1,0.3,1.6,0.1
		C381.7,339.4,380.3,371.5,358.3,378.9L358.3,378.9z M349.6,391.3c-44.3,34.3-51.5,41.1-97.8-1.9
		C283.3,390.4,318.5,394.6,349.6,391.3z M346.8,15.4c15.7,3.9,27.9,16.9,38.9,27.9c1.3,1.3,3.3,1.3,4.6,0.1c0,0,0.1-0.1,0.1-0.1
		c11.1-11.1,23-23.5,38.8-27.9c52.2-14.5,88.9,45.6,54.4,90.3c-11.4,13.2-23.7,25.6-36.8,37C423.6,83.8,339,59,289.9,101.4
		C260.2,59.4,297.2,3.1,346.8,15.4L346.8,15.4z M64.1,176.4c6.5-53.3,55-91.3,108.4-84.7c3.2,0.4,6.4,0.9,9.5,1.7
		c31.6,6.9,50.3,27.9,71.7,49.8c1.4,1.2,3.4,1,4.6-0.3c0,0,0.1-0.1,0.1-0.1c26-26.5,52.2-52.7,92.5-52.2
		c53.9,0.5,97.2,44.7,96.7,98.7c-0.2,17.3-4.9,34.2-13.8,49.1c-20.3,34-55.5,62-83.6,90.1c-39.2-10.1-84.8-11.2-123.6-17.3
		c-26.3-4.3-58.6-14.5-83.2-1.8C107.1,272.4,57.2,234,64.1,176.4L64.1,176.4z"/>
</g>
</svg>
