<svg xmlns="http://www.w3.org/2000/svg" xmlns:xlink="http://www.w3.org/1999/xlink" version="1.1" width="512" height="512" x="0" y="0" viewBox="0 0 612.009 612.01" style="enable-background:new 0 0 512 512" xml:space="preserve"><g><path d="M354.252 237.4H277.81v-76.576c0-10.56-8.551-19.149-19.111-19.149s-19.11 8.57-19.11 19.149V237.4h-76.424c-10.56 0-19.11 3.482-19.11 14.061s8.551 24.237 19.11 24.237h76.443v76.558c0 10.579 8.551 19.148 19.11 19.148 10.56 0 19.111-8.569 19.111-19.148v-76.558h76.443c10.56 0 19.11-8.57 19.11-19.149-.019-10.578-8.57-19.149-19.13-19.149zm251.94 341.314L448.18 423.228c41.377-44.955 66.801-104.41 66.801-169.834C514.981 113.439 399.705 0 257.494 0S.007 113.439.007 253.393s115.276 253.393 257.487 253.393c61.445 0 117.801-21.253 162.068-56.586l158.624 156.099c7.729 7.614 20.277 7.614 28.006 0a19.276 19.276 0 0 0 0-27.585zM257.494 467.8c-120.326 0-217.869-95.993-217.869-214.407S137.168 38.986 257.494 38.986c120.327 0 217.869 95.993 217.869 214.407S377.821 467.8 257.494 467.8z" fill="#ffffff" data-original="#000000"/></g></svg>