<?xml version="1.0" encoding="utf-8"?>
<!-- Generator: Adobe Illustrator 27.0.0, SVG Export Plug-In . SVG Version: 6.00 Build 0)  -->
<svg version="1.1" id="Слой_1" xmlns="http://www.w3.org/2000/svg" xmlns:xlink="http://www.w3.org/1999/xlink" x="0px" y="0px" viewBox="0 0 512 512"
	 style="enable-background:new 0 0 512 512;" xml:space="preserve">
<style type="text/css">
	.st0{fill:#CD4C60;}
	.st1{fill:#FFFFFF;}
	.st2{fill:#FCC230;}
	.st3{fill:#335066;}
	.st4{fill:#3D6177;}
	.st5{fill:#FFC655;}
	.st6{fill:#262626;}
</style>
<g>
	<path class="st0" d="M430.6,506.8c-2.4,0-4.3-1.9-4.3-4.3c0-0.8,0.2-1.5,0.6-2.2l4.7-8l-11.3,6.5c-2,1.2-4.7,0.5-5.8-1.6
		c-1-1.7-0.7-3.7,0.6-5.1l3.6-3.7l-8,4.6c-2,1.2-4.7,0.5-5.8-1.6c-0.9-1.6-0.7-3.7,0.6-5l15-16l-57.3,33.1c-2.1,1.2-4.7,0.4-5.8-1.6
		c-1-1.8-0.6-4.1,1.1-5.4l30.2-23.2l-27.9,16.1c-2.1,1.2-4.7,0.4-5.8-1.6c-1-1.8-0.6-4,0.9-5.3l21.1-17.9l-16.2,9.3
		c-2,1.2-4.7,0.5-5.8-1.6c-0.9-1.6-0.7-3.7,0.6-5.1l10.8-11.3l-5.6,3.3c-2,1.2-4.7,0.5-5.8-1.6c-0.5-0.9-0.7-2.1-0.5-3.1l2.6-10.7
		c-2.2-0.9-3.3-3.4-2.4-5.5c0.4-0.9,1-1.7,1.9-2.1l4.3-2.5c2-1.2,4.6-0.5,5.8,1.6c0.5,0.9,0.7,2.1,0.5,3.1l-2,8.5l23-13.3
		c2-1.2,4.7-0.5,5.8,1.6c0.9,1.6,0.7,3.7-0.6,5.1l-10.9,11.3l31.3-18.1c2-1.2,4.7-0.5,5.8,1.6c1,1.8,0.6,4-0.9,5.4l-21.1,17.9
		l43.1-24.9c2.1-1.2,4.7-0.4,5.8,1.6c1,1.8,0.6,4.1-1.1,5.4l-30.2,23.2l26.2-15.1c2-1.2,4.7-0.5,5.8,1.6c0.9,1.6,0.7,3.7-0.6,5
		l-15,16l9.8-5.7c2-1.2,4.7-0.5,5.8,1.6c0.9,1.6,0.7,3.7-0.6,5.1l-4,4.1c1.4-0.3,3,0.1,4,1.1c1.4,1.4,1.6,3.5,0.6,5.2l-4.8,8.3
		c1.8-0.4,3.7,0.4,4.7,2c1.2,2,0.5,4.7-1.6,5.8l-12.7,7.3C432.1,506.6,431.4,506.8,430.6,506.8L430.6,506.8z"/>
	<path class="st0" d="M92.2,405.1c-2.4,0-4.3-1.9-4.3-4.3c0-1.5,0.8-2.9,2.1-3.7l63.2-38.3l-79,45.6c-2.1,1.1-4.7,0.4-5.8-1.7
		c-1.1-2-0.4-4.4,1.4-5.6l95.2-57.8L52.3,404.5c-2.1,1.1-4.7,0.4-5.8-1.7c-1.1-2-0.4-4.4,1.4-5.6l105.6-63.9L30,404.5
		c-2.1,1.1-4.7,0.4-5.8-1.7c-1.1-2-0.5-4.4,1.4-5.7l183.7-112.3L14.2,397.6c-2,1.2-4.6,0.5-5.8-1.5s-0.5-4.6,1.5-5.8L76,350.5
		L10.9,388c-2,1.2-4.6,0.5-5.8-1.5s-0.5-4.6,1.5-5.8l0,0l211.7-129.6L10.9,370.9c-2.1,1.1-4.7,0.3-5.8-1.8c-1-1.9-0.4-4.3,1.4-5.5
		l185-112.7L10.9,355.1c-2.1,1.1-4.7,0.4-5.8-1.7c-1.1-2-0.4-4.4,1.4-5.6l135.6-82L10.9,341.5c-2.1,1.1-4.7,0.4-5.8-1.7
		c-1.1-2-0.5-4.5,1.5-5.7l98.1-59.1l-93.8,54.1c-2.1,1.1-4.7,0.4-5.8-1.7c-1.1-2-0.4-4.4,1.4-5.6l240.6-148.3L10.9,310
		c-2.1,1.1-4.7,0.4-5.8-1.7c-1.1-2-0.4-4.4,1.4-5.6l145.6-88.2L10.9,296c-2.1,1.1-4.7,0.4-5.8-1.7c-1.1-2-0.4-4.4,1.4-5.6
		l144.8-88.1L10.9,281.7c-2.1,1.2-4.7,0.4-5.8-1.6s-0.5-4.5,1.4-5.7l208.8-129.7l-204.4,118c-2.1,1.1-4.7,0.3-5.8-1.8
		c-1-1.9-0.4-4.3,1.4-5.5l188.1-117.3l-183.7,106c-2.1,1.1-4.7,0.3-5.8-1.8c-1-1.9-0.4-4.3,1.4-5.5l102.9-63.1l-98.6,56.9
		c-2.1,1.1-4.7,0.3-5.8-1.8c-1-1.9-0.4-4.3,1.4-5.6l127.7-79.4L10.9,215.1c-2.1,1.1-4.7,0.4-5.8-1.7c-1.1-2-0.5-4.4,1.4-5.6
		L115,140.3l-104.1,60c-2.1,1.2-4.7,0.4-5.8-1.6s-0.5-4.4,1.4-5.7l111.1-70L10.9,184.6c-2.1,1.1-4.7,0.4-5.8-1.7
		c-1.1-2-0.5-4.4,1.4-5.6L72,136.4l-61.1,35.3c-2.1,1.1-4.7,0.4-5.8-1.7c-1-1.9-0.5-4.3,1.3-5.6l105.9-68.6L10.9,154.5
		c-2.1,1.1-4.7,0.4-5.8-1.7c-1.1-1.9-0.5-4.3,1.3-5.6L96,88.5l-85.1,49.1c-2,1.2-4.7,0.5-5.8-1.6c-1.1-1.9-0.5-4.4,1.3-5.6L93,71.7
		l-82.1,47.4c-2,1.2-4.6,0.5-5.8-1.6c-1.1-1.9-0.6-4.4,1.3-5.7l55.1-37L10.9,104c-2,1.2-4.7,0.4-5.8-1.6C4,100.5,4.6,98,6.4,96.8
		L34.6,78L10.9,91.6c-2.1,1-4.7,0-5.7-2.1c-0.8-1.7-0.3-3.8,1.1-5L42,59.2l-31.1,18c-2,1.3-4.6,0.7-5.9-1.3S4.3,71.3,6.3,70l9-6.2
		l-4.4,2.6c-2,1.2-4.7,0.5-5.8-1.6c-1-1.8-0.6-4.1,1-5.4l25-20.5L10.9,50.5c-2,1.2-4.6,0.5-5.8-1.5c-1-1.7-0.7-3.9,0.7-5.3l14.4-14
		l-9.3,5.4c-2,1.2-4.7,0.5-5.8-1.6c-0.8-1.5-0.7-3.3,0.3-4.6l5.6-7.7c-2.4-0.1-4.1-2.2-4-4.5c0.1-1.4,0.9-2.7,2.1-3.4l14.2-8.2
		c2-1.2,4.7-0.5,5.8,1.6c0.8,1.5,0.7,3.3-0.3,4.6l-4.6,6.3L45.9,5.1c1.9-1.1,4.2-0.6,5.5,1.1s1.1,4.1-0.4,5.6l-14.5,14l36-20.7
		c2.1-1.2,4.7-0.4,5.8,1.6c1,1.8,0.6,4-1,5.3l-25,20.5L99.9,5.1c2.1-1.1,4.7-0.4,5.8,1.6c1.1,1.9,0.5,4.3-1.2,5.6l-8.9,6.2
		l23.2-13.4c2.1-1.1,4.7-0.4,5.8,1.7c1,1.9,0.5,4.2-1.2,5.5L87.6,37.5l56.1-32.3c2.1-1.1,4.7-0.4,5.8,1.7c1,1.9,0.5,4.3-1.3,5.5
		L120,31.1l45.1-26c2-1.2,4.7-0.5,5.8,1.6c1.1,1.9,0.5,4.4-1.3,5.6l-55.1,37.1l76.7-44.3c2.1-1.1,4.7-0.4,5.8,1.7
		c1,1.9,0.5,4.3-1.3,5.5L109.2,71L223.4,5.1c2.1-1.1,4.7-0.3,5.8,1.8c1,1.9,0.4,4.2-1.3,5.5L138.3,71L252.5,5.1
		c2.1-1.1,4.7-0.4,5.8,1.7c1,1.9,0.5,4.3-1.3,5.6L151,81L282.5,5.1c2.1-1.1,4.7-0.3,5.8,1.8c1,1.9,0.4,4.3-1.4,5.5l-65.6,40.9
		l83.6-48.2c2.1-1.1,4.7-0.3,5.8,1.8c1,1.9,0.4,4.3-1.4,5.5l-111.1,70L332,5.1c2-1.2,4.7-0.5,5.8,1.6c1.1,2,0.5,4.5-1.4,5.7
		L228,79.9L357.6,5.1c2.1-1.1,4.7-0.4,5.8,1.7c1.1,2,0.5,4.4-1.4,5.6L234.3,91.8L384.4,5.1c2.1-1.1,4.7-0.4,5.8,1.7
		c1.1,2,0.4,4.4-1.4,5.6l-103,63.1L407.9,5.1c2.1-1.1,4.7-0.3,5.8,1.8c1,1.9,0.4,4.3-1.4,5.5l-188,117.2L440,5.1
		c2.1-1.1,4.7-0.3,5.8,1.8c1,1.9,0.4,4.3-1.4,5.6L235.6,142.1l237.3-137c2.1-1.1,4.7-0.3,5.8,1.8c1,1.9,0.4,4.4-1.4,5.6l-144.8,88
		L493.1,7.7c2-1.2,4.6-0.5,5.8,1.5c1.2,2,0.5,4.6-1.5,5.8L352,103.3l148.5-85.7c2.1-1.2,4.7-0.4,5.8,1.6c1.1,2,0.5,4.5-1.4,5.7
		L264.3,173.1L501.1,36.4c2.1-1.1,4.7-0.4,5.8,1.7c1.1,2,0.5,4.5-1.5,5.7L407,103l94-54.3c2.1-1.1,4.7-0.4,5.8,1.7
		c1.1,2,0.4,4.4-1.4,5.6L370,137.9l131-75.6c2.1-1.1,4.7-0.3,5.8,1.8c1,1.9,0.4,4.3-1.4,5.5l-185,112.7L501.1,78
		c2.1-1.1,4.7-0.3,5.8,1.8c1,1.9,0.4,4.4-1.4,5.6L293.7,215L501.1,95.2c2.1-1.1,4.7-0.4,5.8,1.7c1.1,2,0.5,4.5-1.5,5.7L439,142.4
		l62-35.8c2.1-1.1,4.7-0.3,5.8,1.8c1,1.9,0.4,4.4-1.4,5.6L321.7,226.2l179.4-103.5c2.1-1.1,4.7-0.4,5.8,1.7c1.1,2,0.4,4.4-1.4,5.6
		l-105.7,64l101.4-58.5c2.1-1.1,4.7-0.4,5.8,1.7c1.1,2,0.4,4.4-1.4,5.6l-95.1,57.7l90.8-52.4c2-1.2,4.6-0.5,5.8,1.5
		c1.2,2,0.5,4.6-1.5,5.8l-63.1,38.3l58.8-34c2-1.2,4.7-0.5,5.8,1.6c1.1,2,0.5,4.5-1.4,5.7L325,280.3l176.1-101.7
		c2.1-1.1,4.7-0.3,5.8,1.8c1,1.9,0.4,4.3-1.4,5.5L333.3,295.2L501,198.4c2.1-1.1,4.7-0.4,5.8,1.7c1.1,1.9,0.5,4.4-1.4,5.6
		l-141.6,89.9l137.1-79.2c2.1-1.1,4.7-0.3,5.8,1.8c1,1.9,0.4,4.3-1.4,5.5L482.1,238l19-11c2-1.2,4.6-0.5,5.8,1.5
		c1.2,2,0.5,4.6-1.5,5.8l-21.9,13.5l17.5-10.1c2.1-1.1,4.7-0.4,5.8,1.7c1.1,1.9,0.5,4.4-1.4,5.6L426,295.3l74.9-43.3
		c2.1-1.1,4.7-0.3,5.8,1.8c1,1.9,0.4,4.3-1.4,5.5l-53.8,34.1l49.4-28.5c2.1-1.1,4.7-0.3,5.8,1.7c1,1.9,0.5,4.3-1.3,5.5l-82.1,54.2
		l77.6-44.8c2.1-1.1,4.7-0.4,5.8,1.7c1,1.9,0.5,4.3-1.3,5.5L443.3,330l57.6-33.2c2.1-1.1,4.7-0.4,5.8,1.7c1,1.9,0.5,4.3-1.2,5.5
		L443,347.7l57.9-33.4c2-1.2,4.7-0.5,5.8,1.6c1.1,1.9,0.6,4.3-1.2,5.6l-46.9,34l42.3-24.4c2.1-1.1,4.7-0.4,5.8,1.7
		c1,1.9,0.5,4.3-1.2,5.5l-5.8,4l1.2-0.7c2-1.2,4.6-0.5,5.8,1.6c1,1.8,0.6,4.1-0.9,5.4l-29.6,25.2l24.6-14.2c2-1.2,4.7-0.5,5.8,1.6
		c0.9,1.7,0.7,3.7-0.7,5.1l-14.8,15l9.7-5.6c2-1.2,4.7-0.5,5.8,1.6c0.9,1.5,0.7,3.4-0.3,4.7l-5,6.5c2.3,0.4,3.8,2.7,3.4,5
		c-0.2,1.2-1,2.3-2,2.9l-14.2,8.2c-2,1.2-4.7,0.5-5.8-1.6c-0.9-1.5-0.7-3.3,0.3-4.7l3.3-4.3l-18.4,10.6c-2.1,1.1-4.7,0.3-5.8-1.7
		c-0.9-1.6-0.6-3.6,0.7-5l14.8-15L440,404.6c-2,1.2-4.7,0.4-5.8-1.6c-1-1.8-0.6-4,0.9-5.3l29.5-25.2L409,404.6
		c-2.1,1.1-4.7,0.4-5.8-1.7c-1-1.9-0.5-4.3,1.2-5.5l5.7-3.9l-19.3,11.1c-2,1.2-4.7,0.5-5.8-1.6c-1.1-1.9-0.6-4.3,1.2-5.6l47-34
		l-71.3,41.1c-2.1,1.1-4.7,0.4-5.8-1.7c-1-1.9-0.5-4.3,1.2-5.5l62.4-43.7L332,404.5c-2.1,1.1-4.7,0.4-5.8-1.7
		c-1-1.9-0.5-4.3,1.3-5.5l62.1-41.3l-84.1,48.6c-2.1,1.1-4.7,0.3-5.8-1.7c-1-1.9-0.5-4.3,1.3-5.5l82-54.2l-106.5,61.4
		c-2.1,1.1-4.7,0.3-5.8-1.8c-1-1.9-0.4-4.3,1.4-5.5l53.8-34.1l-71.7,41.4c-2.1,1.1-4.7,0.4-5.8-1.7c-1-1.9-0.5-4.3,1.4-5.6
		l79.4-50.4l-99.9,57.7c-2.1,1.2-4.7,0.4-5.8-1.6s-0.5-4.5,1.4-5.7l21.8-13.4l-35.9,20.7c-2.1,1.1-4.7,0.3-5.8-1.8
		c-1-1.9-0.4-4.3,1.4-5.5l23.4-14.3l-37.5,21.7c-2.1,1.1-4.7,0.3-5.8-1.8c-1-1.9-0.4-4.3,1.4-5.5l141.6-89.8l-168.3,97.1
		c-2.1,1.1-4.7,0.4-5.8-1.7c-1-1.9-0.5-4.3,1.4-5.6l172-109.4L127,404.5c-2.1,1.2-4.7,0.4-5.8-1.6c-1.1-2-0.5-4.4,1.4-5.7L303,284
		L94.3,404.5C93.7,404.9,93,405.1,92.2,405.1z"/>
	<path class="st1" d="M117.2,371c-2.4,0-4.3-1.9-4.3-4.3c0-1.5,0.8-2.8,2-3.6l158.4-99.5L90.8,369c-2.1,1.1-4.7,0.3-5.8-1.8
		c-1-1.9-0.4-4.4,1.4-5.6l62-37.7l-62.2,35.9c-2,1.2-4.7,0.5-5.9-1.5c-1.2-2-0.5-4.7,1.5-5.9l0,0l100.9-61.8L81.9,349
		c-2,1.2-4.7,0.5-5.8-1.6c-1.1-2-0.5-4.5,1.4-5.7l173.4-108.1L71.6,337.2c-2,1.2-4.6,0.5-5.8-1.5c-1.2-2-0.5-4.6,1.5-5.8l71.3-43.3
		l-77.1,44.6c-2.1,1.1-4.7,0.3-5.8-1.8c-1-1.9-0.4-4.3,1.4-5.5l158-97.9L45.8,323.6c-2,1.2-4.7,0.5-5.8-1.6c-1.1-2-0.5-4.5,1.5-5.7
		l92.2-56.2L45,311.3c-2,1.2-4.6,0.5-5.8-1.5s-0.5-4.6,1.5-5.8L76,282.6l-31,17.9c-2.1,1.1-4.7,0.4-5.8-1.7
		c-1.1-1.9-0.4-4.4,1.4-5.6l187.9-117.9L45.1,281.2c-2.1,1.1-4.7,0.3-5.8-1.8c-1-1.9-0.4-4.3,1.4-5.5l110.9-68.1L45.1,267.3
		c-2.1,1.1-4.7,0.4-5.8-1.7c-1.1-2-0.4-4.4,1.4-5.6l103.6-63.8l-99.2,57.3c-2.1,1.1-4.7,0.3-5.8-1.8c-1-1.9-0.4-4.3,1.4-5.6
		L150,178.2L45.1,238.8c-2.1,1.1-4.7,0.3-5.8-1.8c-1-1.9-0.4-4.4,1.4-5.6l31.9-19.5l-27.5,15.9c-2.1,1.1-4.7,0.3-5.8-1.7
		c-1-1.9-0.4-4.3,1.3-5.5l128.9-82.7L45.1,209.7c-2.1,1.1-4.7,0.4-5.8-1.7c-1.1-1.9-0.4-4.4,1.4-5.6l58.7-36.8L45.1,197
		c-2.1,1.1-4.7,0.3-5.8-1.8c-1-1.9-0.4-4.3,1.4-5.6l10.9-6.8l-6.6,3.8c-2.1,1.1-4.7,0.3-5.8-1.8c-1-1.9-0.4-4.3,1.4-5.5l36.6-23
		L45,174.9c-2.1,1.1-4.7,0.4-5.8-1.7c-1.1-1.9-0.4-4.4,1.4-5.6l10.8-6.8l-6.4,3.7c-2.1,1.1-4.7,0.4-5.8-1.7c-1-1.9-0.5-4.2,1.2-5.5
		L124.8,99L45,145.1c-2.1,1.1-4.7,0.4-5.8-1.7c-1-1.9-0.5-4.3,1.3-5.6l11.8-7.6l-7.3,4.3c-2,1.2-4.7,0.5-5.8-1.6
		c-1.1-1.9-0.6-4.3,1.3-5.6L85.2,96l-40.1,23.2c-2,1.2-4.7,0.5-5.8-1.6c-1.1-1.9-0.6-4.3,1.2-5.5l37.2-27.6l-32.6,18.8
		c-2,1.2-4.7,0.4-5.8-1.6c-1-1.8-0.6-4.1,1-5.4l38.5-30.9c-0.3-0.2-0.7-0.5-0.9-0.8c-1.4-1.5-1.5-3.8-0.3-5.4l5.2-7
		c-0.5-0.4-1-0.8-1.3-1.4c-1.2-2-0.5-4.6,1.6-5.8l9.9-5.7c2-1.2,4.7-0.5,5.8,1.6c0.9,1.5,0.7,3.3-0.3,4.7l-1.5,2l14.3-8.2
		c2-1.2,4.7-0.4,5.8,1.6c1,1.8,0.6,4.1-1,5.4L89.3,67.8l49.5-28.5c2.1-1.2,4.7-0.4,5.8,1.6c1,1.9,0.6,4.2-1.1,5.5l-37.2,27.5
		l59.9-34.6c2.1-1.1,4.7-0.4,5.8,1.7c1,1.9,0.5,4.3-1.2,5.5L126,77.7l66.7-38.5c2.1-1.1,4.7-0.4,5.8,1.6c1.1,1.9,0.5,4.4-1.4,5.6
		L185.4,54l25.7-14.8c2.1-1.1,4.7-0.4,5.8,1.7c1,1.9,0.5,4.2-1.2,5.5l-84.3,58.3l113.5-65.5c2.1-1.2,4.7-0.4,5.8,1.6
		s0.5,4.4-1.4,5.7l-10.9,6.8l24.5-14.1c2.1-1.1,4.7-0.4,5.8,1.7c1.1,1.9,0.5,4.4-1.4,5.6l-36.5,23l52.5-30.3
		c2.1-1.1,4.7-0.4,5.8,1.7c1.1,2,0.5,4.4-1.4,5.6l-10.9,6.8l24.4-14.1c2.1-1.1,4.7-0.4,5.8,1.7c1.1,1.9,0.4,4.4-1.4,5.6l-58.7,36.7
		l76.3-44c2.1-1.1,4.7-0.3,5.8,1.7c1,1.9,0.4,4.3-1.3,5.5l-128.9,82.7l155.8-90c2.1-1.1,4.7-0.3,5.8,1.8c1,1.9,0.4,4.4-1.4,5.6
		l-32,19.6l46.6-26.9c2.1-1.1,4.7-0.4,5.8,1.7c1.1,2,0.5,4.4-1.4,5.6l-109.2,67.9L399,39.3c2.1-1.1,4.7-0.4,5.8,1.7
		c1.1,2,0.4,4.4-1.4,5.6L300,110.2l120.9-69.8c2-1.2,4.6-0.5,5.8,1.5c1.2,2,0.5,4.6-1.5,5.8l-110.9,68.1l111.8-64.5
		c2.1-1.1,4.7-0.4,5.8,1.7c1.1,1.9,0.4,4.4-1.4,5.6L242.6,176.5L434,66c2-1.2,4.6-0.5,5.8,1.5s0.5,4.6-1.5,5.8l-35.5,21.4l38.1-22
		c2.1-1.1,4.7-0.3,5.8,1.8c1,1.9,0.4,4.4-1.4,5.6l-92.2,56.2l99-57.2c2.1-1.2,4.7-0.4,5.8,1.6c1.1,2,0.5,4.5-1.4,5.7l-158.1,97.9
		l168.3-97.1c2.1-1.1,4.7-0.4,5.8,1.7c1.1,2,0.4,4.4-1.4,5.6L400,137.7L466.9,99c2-1.2,4.6-0.6,5.9,1.5c1.2,2,0.6,4.6-1.5,5.9
		l-173.4,108L467,116.8c2-1.2,4.7-0.5,5.8,1.6c1.1,2,0.5,4.5-1.5,5.7l-100.7,61.6l96.3-55.6c2.1-1.1,4.7-0.3,5.8,1.8
		c1,1.9,0.4,4.3-1.4,5.5L409,175.3l58-33.5c2.1-1.1,4.7-0.4,5.8,1.7c1.1,1.9,0.4,4.4-1.4,5.6L313,248.7l153.9-88.9
		c2.1-1.1,4.7-0.4,5.8,1.7c1.1,2,0.5,4.4-1.4,5.6l-119.2,74.5l114.8-66.3c2.1-1.1,4.7-0.4,5.8,1.7c1.1,1.9,0.5,4.4-1.4,5.6
		l-139.9,89.8l135.4-78.2c2.1-1.1,4.7-0.3,5.8,1.8c1,1.9,0.4,4.3-1.4,5.5l-82.7,52.2l78.3-45.2c2-1.2,4.6-0.5,5.8,1.5
		c1.2,2,0.5,4.5-1.4,5.8l-89.6,57.6l85.2-49.1c2-1.2,4.7-0.4,5.8,1.6c1.1,1.9,0.5,4.4-1.3,5.7l-86.2,56.5l81.7-47.2
		c2.1-1.1,4.7-0.4,5.8,1.7c1.1,1.9,0.5,4.3-1.3,5.6l-56.1,36.6l51.6-29.8c2-1.2,4.6-0.6,5.9,1.4c1.2,2,0.6,4.6-1.4,5.9l-27.9,18.1
		l23.4-13.5c2-1.2,4.7-0.5,5.8,1.6c1.1,1.9,0.6,4.3-1.2,5.6l-62.3,44.4l57.6-33.3c2-1.2,4.7-0.5,5.8,1.6c1.1,1.9,0.6,4.3-1.2,5.6
		l-35.4,25.1l30.7-17.8c2-1.2,4.7-0.5,5.8,1.6c1,1.8,0.6,4.1-1,5.4l-36.8,30l2.2-1.3c2-1.2,4.6-0.5,5.8,1.5c1,1.7,0.7,3.8-0.6,5.1
		l-15.9,16.3l0.1,0.2c1.2,2,0.5,4.6-1.6,5.8l-10.7,6.2c-2,1.2-4.7,0.5-5.8-1.6c-1-1.7-0.7-3.7,0.6-5.1l5.4-5.6L393,370.4
		c-2,1.2-4.6,0.5-5.8-1.5c-1.1-1.8-0.6-4.1,1-5.5l36.7-30l-64,37c-2.1,1.1-4.7,0.4-5.8-1.7c-1-1.9-0.5-4.2,1.2-5.5l35.4-25.1
		l-55.9,32.3c-2.1,1.1-4.7,0.4-5.8-1.7c-1-1.9-0.5-4.2,1.2-5.5l62.2-44.4l-89.2,51.5c-2.1,1.1-4.7,0.4-5.8-1.6
		c-1.1-1.9-0.5-4.4,1.4-5.6l27.8-18l-43.9,25.3c-2.1,1.1-4.7,0.4-5.8-1.7c-1.1-1.9-0.5-4.3,1.3-5.6l56.1-36.6l-76,43.9
		c-2.1,1.2-4.7,0.4-5.8-1.6c-1.1-1.9-0.5-4.4,1.3-5.6l86.2-56.6l-110.5,63.8c-2,1.2-4.7,0.5-5.8-1.6c-1.1-2-0.5-4.4,1.4-5.7
		l89.5-57.5l-112.3,64.8c-2.1,1.1-4.7,0.4-5.8-1.7c-1.1-1.9-0.5-4.4,1.4-5.6l82.7-52.2l-103,59.5c-2.1,1.1-4.7,0.4-5.8-1.7
		c-1.1-1.9-0.5-4.4,1.4-5.6l139.9-89.8l-168.2,97.1c-2.1,1.1-4.7,0.4-5.8-1.7c-1.1-1.9-0.4-4.4,1.4-5.6l119-74.4l-141.6,81.7
		C118.7,370.7,118,370.9,117.2,371z"/>
	<path class="st2" d="M396.7,456.1c-2.4,0-4.3-1.9-4.3-4.3c0-1.3,0.6-2.5,1.5-3.3l32.6-26.9l-49.8,28.7c-2,1.2-4.7,0.4-5.8-1.6
		c-1.1-1.9-0.6-4.2,1.1-5.5l34.3-25.5l-43.2,25c-2.1,1.2-4.7,0.4-5.8-1.6c-1-1.8-0.6-4.2,1.1-5.5l48.2-36.3L351,431.4
		c-2,1.2-4.6,0.5-5.8-1.5c-1.1-1.9-0.6-4.4,1.2-5.7l32.3-22.7l-34.7,20c-2,1.2-4.6,0.5-5.8-1.5c-1.1-1.9-0.6-4.4,1.2-5.6l38.5-27.5
		l-39.3,22.7c-2,1.2-4.7,0.5-5.8-1.6c-1.1-1.9-0.6-4.2,1.1-5.5l47.9-36.2l-46.5,26.9c-2.1,1.1-4.7,0.4-5.8-1.7
		c-1-1.9-0.5-4.2,1.2-5.5l21.8-15.6l-17.1,9.8c-2,1.2-4.6,0.5-5.8-1.6c-1.1-1.9-0.6-4.3,1.2-5.6l12.6-9.1l-5.1,3
		c-2,1.2-4.6,0.5-5.8-1.5c-1-1.7-0.7-3.9,0.7-5.3l21.6-20.8c-2.2,0.7-4.7-0.5-5.4-2.7c-0.6-1.9,0.2-4,1.9-5.1l29.1-16.8
		c2-1.2,4.6-0.5,5.8,1.5c1,1.7,0.7,3.9-0.7,5.3l-21.3,20.6l48.9-28.3c2-1.2,4.6-0.5,5.8,1.6c1.1,1.9,0.6,4.3-1.2,5.6l-12.7,9.1
		l21-12.1c2-1.2,4.7-0.5,5.8,1.6c1.1,1.9,0.6,4.3-1.2,5.6L409,340.7l28.5-16.4c2.1-1.1,4.7-0.4,5.8,1.6c1,1.8,0.6,4.2-1.1,5.4
		l-47.9,36.2l55.6-32.1c2.1-1.2,4.7-0.4,5.8,1.6c1.1,1.9,0.6,4.3-1.2,5.5L416,370l41.6-24c2.1-1.1,4.7-0.4,5.8,1.7
		c1,1.9,0.5,4.2-1.2,5.5L429.9,376l32.9-19c2-1.2,4.7-0.5,5.8,1.6c1.1,1.9,0.6,4.2-1.1,5.5l-48.2,36.3l47.2-27.3
		c2-1.2,4.7-0.4,5.8,1.6c1.1,1.9,0.6,4.2-1.1,5.5l-34.3,25.5l29.5-17c2-1.2,4.7-0.5,5.8,1.6c1,1.8,0.6,4.1-1,5.4l-32.6,26.9
		l21.3-12.3c2.1-1.2,4.7-0.4,5.8,1.6c1,1.8,0.6,4-1,5.4l-14,11.6c0.6,0.4,1.1,0.9,1.5,1.5c1.2,2,0.5,4.6-1.6,5.8L421.5,453
		c-2.1,1.2-4.7,0.4-5.8-1.6c-1-1.8-0.6-4,1-5.4l3.9-3.2l-21.7,12.5C398.2,455.9,397.5,456.1,396.7,456.1L396.7,456.1z"/>
	<path class="st3" d="M217.8,260c-2.4,0-4.3-1.9-4.3-4.3c0-1.4,0.7-2.8,1.9-3.6l26.7-17.7l-43.3,25c-2.1,1.1-4.7,0.4-5.8-1.7
		c-1-1.9-0.5-4.2,1.2-5.5l63.8-44.4L169.4,259c-2,1.2-4.7,0.5-5.8-1.6c-1.1-1.9-0.6-4.3,1.2-5.6l68.8-48.8l-76.9,44.4
		c-2,1.2-4.7,0.5-5.8-1.6c-1.1-1.9-0.6-4.3,1.2-5.6l52.1-36.9l-48.2,28c-2,1.2-4.7,0.5-5.8-1.6c-1.1-1.9-0.6-4.3,1.1-5.5l41.3-30.9
		l-36.6,21c-2.1,1.2-4.7,0.4-5.8-1.6c-1-1.8-0.6-4.2,1.1-5.5l21.8-16.7l-17.1,9.9c-2,1.2-4.7,0.4-5.8-1.6c-1-1.8-0.6-4.1,1-5.4
		l12.7-10.5l-7.9,4.5c-2,1.2-4.7,0.5-5.8-1.6c-0.9-1.6-0.7-3.6,0.5-4.9l9.3-10.6l-4,2.3c-2,1.2-4.7,0.5-5.8-1.6
		c-0.6-1-0.7-2.2-0.4-3.3l2.2-7.7c-2.1-1.1-2.9-3.6-1.9-5.7c0.4-0.7,1-1.4,1.7-1.8l4.3-2.5c2-1.2,4.6-0.5,5.8,1.6
		c0.6,1,0.7,2.2,0.4,3.3l-1.4,5L178,150c2-1.2,4.7-0.4,5.8,1.6c0.9,1.6,0.7,3.5-0.5,4.9l-9.3,10.6l29.8-17.2c2-1.2,4.7-0.4,5.8,1.6
		c1,1.8,0.6,4.1-1,5.4l-12.7,10.5l30.3-17.5c2.1-1.2,4.7-0.4,5.8,1.6c1,1.8,0.6,4.2-1.1,5.5l-21.8,16.7l41.2-23.8
		c2-1.2,4.7-0.5,5.8,1.6c1.1,1.9,0.6,4.3-1.1,5.5l-41.3,30.9l65.9-38.1c2-1.2,4.6-0.5,5.8,1.5c1.1,1.9,0.6,4.4-1.2,5.7l-52.1,36.9
		l76.4-44.1c2-1.2,4.7-0.5,5.8,1.6c1.1,1.9,0.6,4.3-1.2,5.6l-68.8,49l97.1-56c2.1-1.1,4.7-0.4,5.8,1.6c1.1,1.9,0.5,4.3-1.2,5.6
		l-63.8,44.4L356,159c2-1.2,4.6-0.5,5.8,1.6c1.1,2,0.5,4.5-1.3,5.7L333.8,184l22.2-12.8c2-1.2,4.7-0.4,5.8,1.6
		c1.1,1.9,0.5,4.3-1.2,5.6l-36.1,25.3l31.6-18.2c2-1.2,4.6-0.5,5.8,1.5c1.1,1.9,0.6,4.4-1.2,5.7l-17.2,12.1l12.6-7.3
		c2.1-1.2,4.7-0.4,5.8,1.6c1,1.8,0.6,4.1-1.1,5.4l-20.3,15.7l15.6-9c2-1.2,4.7-0.5,5.8,1.6c0.9,1.7,0.7,3.7-0.6,5.1L343,236.5
		l13.1-7.6c2-1.2,4.7-0.5,5.8,1.6c0.8,1.4,0.7,3.2-0.2,4.6l-5.9,8.3c2.4,0,4.3,1.9,4.3,4.3c0,1.5-0.8,2.9-2.1,3.7l-14.2,8.2
		c-2,1.2-4.7,0.5-5.8-1.6c-0.8-1.4-0.7-3.2,0.2-4.6l5.1-7.2l-23.1,13.4c-2,1.2-4.7,0.5-5.8-1.6c-1-1.7-0.7-3.7,0.6-5.1l18.3-18.6
		l-43.8,25.3c-2.1,1.2-4.7,0.4-5.8-1.6c-1-1.8-0.6-4.1,1.1-5.4l20.3-15.7l-39.4,22.8c-2.1,1.2-4.7,0.4-5.8-1.6
		c-1.1-1.9-0.5-4.3,1.2-5.5l17.3-12.1l-33.5,19.3c-2.1,1.1-4.7,0.4-5.8-1.7c-1-1.9-0.5-4.2,1.2-5.5l36.1-25.3l-56.3,32.5
		C219.3,259.8,218.5,260,217.8,260L217.8,260z"/>
	<path class="st4" d="M233.4,183.2c-2.4,0-4.3-1.9-4.3-4.3c0-1.4,0.7-2.7,1.8-3.5l10.5-7.2l-25,14.4c-2,1.2-4.6,0.5-5.8-1.5
		c-1.1-1.9-0.6-4.3,1.2-5.6l28.5-20.8L192,182.6c-2.1,1.1-4.7,0.4-5.8-1.7c-1.1-1.9-0.5-4.3,1.3-5.6l6.7-4.6l-19,11
		c-2,1.2-4.7,0.4-5.8-1.6c-1.1-1.9-0.6-4.3,1.2-5.5l26.6-19.4l-33.9,19.6c-2.1,1.2-4.7,0.4-5.8-1.6c-1-1.8-0.6-4,0.9-5.3l34.7-29.5
		l-36.8,21.2c-2,1.2-4.6,0.6-5.9-1.5c-1-1.7-0.7-4,0.8-5.4l20.8-19.5l-15.9,9.2c-2,1.2-4.7,0.5-5.8-1.6c-0.8-1.3-0.7-3,0-4.3
		l8.1-13.6c-2.1,1.1-4.7,0.3-5.8-1.8c-1.1-2-0.4-4.5,1.6-5.7l14.2-8.2c2-1.2,4.7-0.5,5.8,1.6c0.8,1.3,0.7,3,0,4.3L166,127l33.7-19.5
		c2-1.2,4.6-0.6,5.9,1.5c1,1.7,0.7,4-0.8,5.4L184,133.9l45.6-26.3c2-1.2,4.7-0.4,5.8,1.6c1,1.8,0.6,4-0.9,5.3L199.7,144l63.1-36.4
		c2-1.2,4.7-0.4,5.8,1.6c1.1,1.9,0.6,4.3-1.2,5.5L240.8,134l45.9-26.5c2.1-1.1,4.7-0.4,5.8,1.7c1.1,1.9,0.5,4.3-1.3,5.6l-6.7,4.6
		l20.5-11.8c2-1.2,4.6-0.5,5.8,1.5c1.1,1.9,0.6,4.3-1.2,5.6l-28.5,20.8l48.3-27.9c2.1-1.2,4.7-0.4,5.8,1.6c1.1,1.9,0.5,4.3-1.3,5.6
		l-10.4,7.2l22.3-12.9c2-1.2,4.6-0.5,5.8,1.5c1.1,1.9,0.6,4.2-1.1,5.6L315,143.9l40.6-23.4c2-1.2,4.7-0.5,5.8,1.6
		c1.1,1.9,0.6,4.3-1.2,5.5l-12.7,9.4l8.6-4.9c2-1.2,4.7-0.4,5.8,1.6c1,1.7,0.6,3.9-0.9,5.3l-17.3,15.3l12.3-7.1
		c2-1.2,4.7-0.4,5.8,1.6c0.9,1.5,0.7,3.4-0.4,4.8l-8.8,11c2.3-0.3,4.5,1.4,4.7,3.8c0.2,1.7-0.6,3.3-2.1,4.2l-17.5,10.1
		c-2,1.2-4.7,0.5-5.8-1.6c-0.9-1.5-0.7-3.4,0.4-4.8l8.2-10.2l-29.1,16.8c-2,1.2-4.7,0.4-5.8-1.6c-1-1.7-0.6-3.9,0.9-5.3l17.3-15.3
		l-38.4,22.2c-2.1,1.2-4.7,0.4-5.8-1.6c-1-1.9-0.6-4.2,1.1-5.5l12.7-9.4l-28.6,16.5c-2,1.2-4.7,0.5-5.8-1.6c-1-1.8-0.6-4.2,1.1-5.5
		l35.8-27.8l-60.4,34.9C234.9,183,234.2,183.2,233.4,183.2z"/>
	<path class="st5" d="M258,217.3c-2.4,0-4.3-1.9-4.3-4.3c0-1,0.3-1.9,0.9-2.6l9.9-12.8l-25.9,15c-2,1.2-4.6,0.5-5.8-1.5
		c-0.9-1.5-0.7-3.4,0.4-4.8l9.6-12l-9.9,5.7c-2,1.2-4.7,0.5-5.8-1.6c-0.6-1-0.7-2.1-0.4-3.2l2.4-9.4c-0.8-0.4-1.5-1-2-1.8
		c-1.2-2-0.5-4.6,1.6-5.8l4.3-2.5c2-1.2,4.7-0.5,5.8,1.6c0.6,1,0.7,2.1,0.4,3.2l-1.8,7.1l20.7-11.9c2-1.2,4.6-0.5,5.8,1.5
		c0.9,1.5,0.7,3.4-0.4,4.8l-9.6,12l25.4-14.6c2-1.2,4.7-0.5,5.8,1.6c0.9,1.5,0.7,3.4-0.3,4.7l-9.9,12.8l4-2.3c2-1.2,4.7-0.4,5.8,1.6
		c1.2,2,0.5,4.6-1.6,5.8l-22.9,13.2C259.4,217.1,258.7,217.3,258,217.3L258,217.3z"/>
	<g>
		<path class="st6" d="M509.6,82.4c-2.1-28.9,13.9-83.9-32.5-76.7c-154.6,5.1-314-10.1-466.4,5.7C-11.9,128,9.1,260.7,2.3,382.5
			c-17.1,43.7,284.6,12.7,327.1,21.4c3.6,14,11.6,26.5,22.8,35.7c0.9,43.3-12,93.6,47.3,50.8c57,43.1,51.7-8.4,50.4-52.1
			c10.5-9.1,18.2-21,22.4-34.3c20.1,2.6,41.5-7.1,37.3-30.1L509.6,82.4L509.6,82.4z M48.9,92.7c10.4-10,31.9-12.7,37.6-29.8
			c3.2-6.2,1.8-14.9,9.1-15.7c107.1-0.4,215.3,0.2,322.3,0c22.1,61.1,50.2,18.2,45.2,70.8c-0.7,65.4,1,131.1,0,196.4
			c0.9,9.1-11.2,7-16.5,11.3c-38.5-30.5-102.5-10.7-116.2,36.7H100.3c-14.3,0.3-12.6-27.6-27.9-33.6c-10.9-6.1-28.8-7.7-23.5-23.6
			C49,234.5,48.8,163.3,48.9,92.7L48.9,92.7z M437.5,494.3c-5.4,20.4-20.5-35-67.7,5.5c-12.3-11.4-2.2-36-5.3-52
			c22.8,12.3,50.3,12,72.9-0.6C437.4,462.8,437.8,478.6,437.5,494.3z M422.7,443.9c-99.2,30.4-114.4-136.8-10.6-122.2
			C472.4,332.1,480.9,423.6,422.7,443.9L422.7,443.9z M497.3,384.6c-0.9,15.2-12.2,14.1-23.5,13.7c5.1-24-2.4-48.8-19.8-66.1
			c18.3-3.1,24.6-15.8,21.6-33.6c-0.6-67.8,1.3-135.7,0-203.5c-1.5-21.8-35.7-15.7-40-39.1c-3-7.6-2.8-15.4-12.2-17.6
			C318.9,37,213.6,38.6,108.8,38c-36.4-8-26.3,29-52,40c-12.7,2.5-23.7,9-20.5,23.9v206.4c-4.6,30.5,35.5,14.7,42.1,52.9
			c5,13.4,22.1,10,33.7,10H328c-1.7,8.8-1.7,17.9,0,26.8c-99.6-0.6-199.5,1-298.9,0c-18.6-2.1-14.4-26.3-14.4-39.6V67
			C15.2,36.6,4.1,2,49.3,11.4c144.1,0.1,288.2-0.2,432.2,0c18.4,0.9,15.8,20.2,15.8,33.2C497,157.9,497.7,271.4,497.3,384.6
			L497.3,384.6z"/>
		<path class="st6" d="M147.4,234.2c-2.2,19.7,15,28.7,32.7,25.7c38.9-8.9,182.5,23.5,184.6-24.5c-0.1-35.6,0.6-71.2,0-106.8
			c-2-31.2-39-19-59.7-21.4c4.3-20.8-8-37.4-29.8-33.6c-26.7,0.5-74.7-8.4-68.1,33.4C116.8,90,154.8,178.9,147.4,234.2z
			 M342.3,252.2c-58-1.2-116.9,2.4-174.6-1.3c-17.5-17.9-3.6-51-8.1-74.4c19.1,9.8,43.7,3.5,64.6,5.2c-13.6,48.9,74.8,47.1,63.6,0.1
			c21-1.3,45.9,4.5,64.3-7.5C347.7,194.8,363.3,242.9,342.3,252.2L342.3,252.2z M275.4,181.8c-0.7,9.5,3.1,22.5-6.8,28.3
			c0.2-0.1-0.9,0.2-0.4,0.1c-20.9,4.2-36.3-5.8-31.7-28.5L275.4,181.8z M221.4,85.2c11-11.4,31.9-2.5,46.7-5.2
			c18-3.7,27.8,9.6,24.6,27c-24.4,0-48.8,0.1-73.1-0.1C218.7,99.7,219.3,92.3,221.4,85.2L221.4,85.2z M159.8,127.5
			c-0.7-26.9,149.4-7.7,178.7-12.8c20.3,2.9,11.9,26.7,13.7,40.7c-2,33-43,18.2-64.9,21.3c-16.1-0.6-34.6,0.4-51.2,0
			c-25.8-3.4-72.9,12.9-76.9-25.4C159,143.4,159.2,135.4,159.8,127.5L159.8,127.5z M359,285.7H154.2c-7,0-9.6,8.8-1.2,8.8h204.8
			C364.8,294.5,367.4,285.7,359,285.7z M328.3,321.7H191.7c-2.6-0.9-14.3,3.4-8,5.1h136.5C322.9,327.8,334.6,323.5,328.3,321.7z"/>
	</g>
</g>
</svg>
